<?xml version="1.0" encoding="utf-8"?>
<!DOCTYPE svg PUBLIC "-//W3C//DTD SVG 1.1//EN" "http://www.w3.org/Graphics/SVG/1.1/DTD/svg11.dtd">
<svg id="sentiment-crossed" viewBox="0 0 16 16" width="100%" height="100%">
  <path d="M4.06786177,11.8990307 C2.80104066,11.0739704 2,9.85714508 2,8.5 C2,9.39308699 3.1239178,10.1767969 4.81456508,10.6189679 L10.1362211,1.49612897 C10.4145014,1.01907706 11.0268191,0.857940816 11.503871,1.1362211 C11.9809229,1.41450138 12.1420592,2.02681911 11.8637789,2.50387103 L4.8637789,14.503871 C4.58549862,14.9809229 3.97318089,15.1420592 3.49612897,14.8637789 C3.01907706,14.5854986 2.85794082,13.9731809 3.1362211,13.496129 L4.06786177,11.8990307 Z M10.4405521,6.65797404 L11.9049033,4.14765775 C11.9658964,4.40622256 12,4.69514597 12,5 C12,6.1045695 11.5522847,7 11,7 C10.7927468,7 10.6002196,6.87390203 10.4405521,6.65797404 Z M6.79407414,12.9090792 L7.90787209,10.9997113 C7.93852622,10.9999035 7.96923607,11 8,11 C11.3137085,11 14,9.88071187 14,8.5 C14,10.9852814 11.3137085,13 8,13 C7.586947,13 7.18364254,12.9686962 6.79407414,12.9090792 Z M5,7 C4.44771525,7 4,6.1045695 4,5 C4,3.8954305 4.44771525,3 5,3 C5.55228475,3 6,3.8954305 6,5 C6,6.1045695 5.55228475,7 5,7 Z"></path>
</svg>
