<?xml version="1.0" encoding="utf-8"?>
<!DOCTYPE svg PUBLIC "-//W3C//DTD SVG 1.1//EN" "http://www.w3.org/Graphics/SVG/1.1/DTD/svg11.dtd">
<svg id="sentiment-neutral" viewBox="0 0 16 16" width="100%" height="100%">
  <path d="M5,7 C4.44771525,7 4,6.1045695 4,5 C4,3.8954305 4.44771525,3 5,3 C5.55228475,3 6,3.8954305 6,5 C6,6.1045695 5.55228475,7 5,7 Z M11,7 C10.4477153,7 10,6.1045695 10,5 C10,3.8954305 10.4477153,3 11,3 C11.5522847,3 12,3.8954305 12,5 C12,6.1045695 11.5522847,7 11,7 Z M3,10 L13,10 C13.5522847,10 14,10.4477153 14,11 C14,11.5522847 13.5522847,12 13,12 L3,12 C2.44771525,12 2,11.5522847 2,11 C2,10.4477153 2.44771525,10 3,10 Z"></path>
</svg>
