<?xml version="1.0" encoding="utf-8"?>
<!DOCTYPE svg PUBLIC "-//W3C//DTD SVG 1.1//EN" "http://www.w3.org/Graphics/SVG/1.1/DTD/svg11.dtd">
<svg id="tag" viewBox="0 0 16 16" width="100%" height="100%">
  <path d="M15.1174813,7.87867966 L7.70326774,15.2928932 C7.31274345,15.6834175 6.67957847,15.6834175 6.28905418,15.2928932 L0.662895533,9.66673458 C0.288499245,9.29233829 0.270828083,8.69099948 0.622592996,8.29526396 L7.10113119,1.00690848 C7.6704335,0.366443392 8.48644571,-9.76996262e-15 9.34335915,4.4408921e-15 L12.996161,5.95079541e-14 C14.6530152,1.32338585e-13 15.996161,1.34314575 15.996161,3 L15.996161,5.75735931 C15.996161,6.55300878 15.6800904,7.31607052 15.1174813,7.87867966 Z M12.496161,2 C11.6677338,2 10.996161,2.67157288 10.996161,3.5 C10.996161,4.32842712 11.6677338,5 12.496161,5 C13.3245881,5 13.996161,4.32842712 13.996161,3.5 C13.996161,2.67157288 13.3245881,2 12.496161,2 Z">
  </path>
</svg>
