<svg xmlns="http://www.w3.org/2000/svg" baseProfile="full" viewBox="0 0 24.00 24.00"><path d="M10.022 13a6.465 6.465 0 0 0-.832 1.934C6.485 15.158 3.9 16.415 3.9 17v1.1h5.298c.173.683.454 1.323.824 1.9H2v-3c0-2.665 5.333-4 8.022-4zM10 4a4.001 4.001 0 0 1 3.18 6.427 6.506 6.506 0 0 0-2.268 1.468L10 12c-2.208 0-4-1.793-4-4 0-2.208 1.792-4 4-4zm0 1.9c-1.158 0-2.1.942-2.1 2.1 0 1.158.942 2.1 2.1 2.1 1.158 0 2.1-.942 2.1-2.1 0-1.158-.942-2.1-2.1-2.1zm5.5 6.1a4.5 4.5 0 0 1 3.807 6.9l3.084 3.084-1.407 1.407-3.108-3.069A4.5 4.5 0 1 1 15.5 12zm0 2a2.5 2.5 0 1 0 0 5 2.5 2.5 0 0 0 0-5z"/></svg>