<svg xmlns="http://www.w3.org/2000/svg" baseProfile="full" viewBox="0 0 24.00 24.00"><path d="M16 14h1.5v2.82l2.44 1.41-.75 1.3L16 17.69V14zm1-2a5 5 0 1 0 0 10 5 5 0 0 0 0-10zm0-2a7 7 0 1 1-6.326 10H1v-3c0-2.665 5.333-4 8-4 .601 0 1.338.068 2.118.203A6.994 6.994 0 0 1 17 10zm-7 7c0-.7.103-1.377.294-2.015A10.296 10.296 0 0 0 9 14.9c-2.974 0-6.1 1.457-6.1 2.1v1.1h7.186A7.06 7.06 0 0 1 10 17zM9 4c2.208 0 4 1.792 4 4 0 2.207-1.792 4-4 4s-4-1.793-4-4c0-2.208 1.792-4 4-4zm0 1.9c-1.158 0-2.1.942-2.1 2.1 0 1.158.942 2.1 2.1 2.1 1.158 0 2.1-.942 2.1-2.1 0-1.158-.942-2.1-2.1-2.1z"/></svg>