<svg xmlns="http://www.w3.org/2000/svg" baseProfile="full" viewBox="0 0 24.00 24.00"><path d="M12 2a3 3 0 1 1 0 6 3 3 0 0 1 0-6zm0 7c1.625 0 3.117.352 4.477 1.055 1.359.703 2.039 1.554 2.039 2.554v5.766c0 1.125-.875 2.063-2.625 2.813v-2.204c0-.937-.86-1.609-2.579-2.015-.562-.125-1-.188-1.312-.188-.875 0-1.695.172-2.46.516-.767.344-1.227.781-1.384 1.312 1.344.532 2.625.797 3.844.797l.984-.093v2.625l-.984.046a9.631 9.631 0 0 1-3.89-.797c-1.75-.75-2.626-1.687-2.626-2.812v-5.766c0-1 .68-1.851 2.04-2.554C8.882 9.352 10.374 9 12 9zm0 2a2 2 0 1 0 0 4 2 2 0 0 0 0-4z"/></svg>