<svg xmlns="http://www.w3.org/2000/svg" baseProfile="full" viewBox="0 0 24.00 24.00"><path d="M12 3c4.97 0 9 3.582 9 8s-6 10-9 10-9-5.582-9-10 4.03-8 9-8zm-1.69 7.928C9.286 9.29 7.467 8.578 6.247 9.34c-1.22.763-1.378 2.71-.354 4.349 1.024 1.639 2.843 2.35 4.063 1.588 1.22-.762 1.379-2.71.354-4.349zm3.38 0c-1.025 1.64-.866 3.586.354 4.349 1.22.762 3.039.051 4.063-1.588 1.024-1.64.866-3.586-.354-4.349-1.22-.762-3.04-.05-4.063 1.588zM12 17.75c-1.981 0-2.492-.735-2.5-.75.005.026.513 2 2.5 2 1.998 0 2.5-1.996 2.5-2 0 .003-.503.75-2.5.75z"/></svg>