<svg xmlns="http://www.w3.org/2000/svg" baseProfile="full" viewBox="0 0 24.00 24.00"><path d="M11.998 2c-.89 2.183-1.427 3.61-2.418 5.728a15.616 15.616 0 0 0 2.565 2.241c-1.303-.536-2.19-1.074-2.855-1.632C8.022 10.984 6.035 14.754 2.002 22c3.17-1.83 5.627-2.958 7.916-3.389a5.802 5.802 0 0 1-.15-1.357l.004-.102c.05-2.03 1.106-3.592 2.358-3.486 1.251.106 2.224 1.84 2.173 3.87a5.74 5.74 0 0 1-.127 1.09c2.265.444 4.695 1.569 7.822 3.374-.616-1.135-1.167-2.158-1.692-3.133-.828-.641-1.691-1.476-3.453-2.38 1.21.314 2.078.677 2.753 1.083C14.263 7.622 13.83 6.3 11.998 2z"/></svg>