<svg xmlns="http://www.w3.org/2000/svg" viewBox="0 0 129 129"><path d="M109.1 36.8c-.3-2-2-3.4-4-3.4h-23V24c0-9.7-7.9-17.6-17.6-17.6-9.7 0-17.6 7.9-17.6 17.6v9.4h-23c-2 0-3.7 1.4-4 3.4l-13.4 81c-.2 1.2.1 2.4.9 3.3.8.9 1.9 1.4 3.1 1.4h108.1c2.3 0 4.1-1.8 4.1-4.1 0-.5-.1-.9-.2-1.3l-13.4-80.3zM55.1 24c0-5.2 4.2-9.4 9.4-9.4s9.4 4.2 9.4 9.4v9.4H55.1V24zm-39.8 90.4l12.1-72.8h19.5v22.9c0 2.3 1.8 4.1 4.1 4.1s4.1-1.8 4.1-4.1V41.6h18.8v22.9c0 2.3 1.8 4.1 4.1 4.1s4.1-1.8 4.1-4.1V41.6h19.5l12.1 72.8H15.3z"/></svg>