<svg xmlns="http://www.w3.org/2000/svg" baseProfile="full" viewBox="0 0 24.00 24.00"><path d="M11.96 1.21c-.66 1.55-1.32 3.1-1.31 4.61.01.6.12 1.18.29 1.8-.08-.16-.17-.31-.27-.45C9.83 6 8.17 5 6.5 4c0 .796.004 1.595.182 2.357L13 12.676v-1.977c1.5-.9 2.92-1.819 3.67-2.869.83-1.16.83-2.5.83-3.83-1.67 1-3.33 2-4.17 3.17-.1.14-.18.28-.26.42.18-.63.29-1.27.28-1.9-.01-1.51-.7-3-1.39-4.48zM3.278 5.5L2 6.768l4.64 4.64c.113.582.314 1.146.69 1.672.75 1.05 2.17 1.97 3.67 2.87v2.28l-.33-.56c-.84-1.17-2.5-2.17-4.17-3.17 0 1.33 0 2.67.83 3.83.75 1.05 2.17 1.97 3.67 2.87V23h2v-1.8a25.88 25.88 0 0 0 2.074-1.358l3.658 3.658L20 22.223 3.277 5.5zM17.5 9.25c-1.67 1-3.33 2-4.17 3.17l-.213.373 1.867 1.867c.69-.502 1.286-1.02 1.686-1.58.83-1.16.83-2.5.83-3.83zm0 5.25c-.566.339-1.118.68-1.65 1.025l1.443 1.444c.205-.796.207-1.634.207-2.469z"/></svg>