<svg xmlns="http://www.w3.org/2000/svg" viewBox="0 0 129 129"><path d="M50.2 39.9c-2.3 0-4.1 1.8-4.1 4.1v41.5c0 2.3 1.8 4.1 4.1 4.1s4.1-1.8 4.1-4.1V44c0-2.3-1.9-4.1-4.1-4.1zM30.4 39.9c-2.3 0-4.1 1.8-4.1 4.1v41.5c0 2.3 1.8 4.1 4.1 4.1s4.1-1.8 4.1-4.1V44c0-2.3-1.9-4.1-4.1-4.1z"/><path d="M10.5 105h86.7c2.3 0 4.1-1.8 4.1-4.1V83.5h17.2c2.3 0 4.1-1.8 4.1-4.1v-30c0-2.3-1.8-4.1-4.1-4.1h-17.2V28.1c0-2.3-1.8-4.1-4.1-4.1H10.5c-2.3 0-4.1 1.8-4.1 4.1v72.8c0 2.2 1.9 4.1 4.1 4.1zm90.8-51.5h13.1v21.9h-13.1V53.5zM14.6 32.2h78.5v64.6H14.6V32.2z"/></svg>