<svg xmlns="http://www.w3.org/2000/svg" viewBox="0 0 90 90"><path d="M0 6v48.064h.063C.735 70.675 20.565 84 45 84c24.855 0 45-13.783 45-30.79 0-17.006-20.145-30.789-45-30.789-10.874 0-20.854 2.642-28.636 7.04V6H0zm45 26.685c15.82 0 28.637 9.188 28.637 20.525 0 11.339-12.816 20.526-28.637 20.526-15.813 0-28.636-9.188-28.636-20.526 0-11.337 12.824-20.525 28.636-20.525zM26.071 53.21c0-7.497 8.477-13.566 18.929-13.566 10.459 0 18.93 6.069 18.93 13.566 0 7.494-8.471 13.567-18.93 13.567-10.452 0-18.929-6.073-18.929-13.567z"/></svg>