<svg xmlns="http://www.w3.org/2000/svg" viewBox="0 0 129 129"><path d="M122.9 37.2c0-1.6-.9-3-2.3-3.7L66.3 6.4c-1.3-.6-2.8-.6-4 .2-1.2.7-1.9 2.1-1.9 3.5v47.6L12.1 33.5c-2-1-4.5-.2-5.5 1.8s-.2 4.5 1.8 5.5l46.9 23.4L8.4 87.8c-2 1-2.9 3.5-1.8 5.5.7 1.4 2.2 2.3 3.7 2.3.6 0 1.2-.1 1.8-.4L60.4 71v47.6c0 1.4.7 2.7 1.9 3.5.7.4 1.4.6 2.2.6.6 0 1.3-.1 1.8-.4l54.3-27.1c1.4-.7 2.3-2.1 2.3-3.7s-.9-3-2.3-3.7L73.7 64.3l46.9-23.4c1.4-.7 2.3-2.1 2.3-3.7zm-54.3 74.7V71l41 20.5-41 20.4zm0-54.2v-41l41 20.5-41 20.5z"/></svg>