<svg xmlns="http://www.w3.org/2000/svg" viewBox="0 0 430.117 430.117"><path d="M33.864 335.562h16.178c.772 5.881 1.706 22.467-8.263 39.596 0 0 45.539-2.193 54.792-39.596h299.683c18.705 0 33.863-15.196 33.863-33.948V88.905c0-18.748-15.158-33.946-33.863-33.946H33.864C15.168 54.959 0 70.157 0 88.905v212.709c0 18.752 15.168 33.948 33.864 33.948zM360.4 218.451c8.896 0 16.102 7.221 16.102 16.12 0 8.9-7.205 16.125-16.102 16.125-8.876 0-16.063-7.225-16.063-16.125 0-8.899 7.187-16.12 16.063-16.12zm-96.383 49.056c.084 1.088.158 2.166.158 3.271 0 22.505-18.192 40.729-40.632 40.729-18.01 0-33.25-11.732-38.596-27.979l79.07-16.021zM71.413 218.451c8.875 0 16.083 7.221 16.083 16.12 0 8.9-7.208 16.125-16.083 16.125s-16.09-7.225-16.09-16.125c0-8.899 7.216-16.12 16.09-16.12z"/></svg>