<svg xmlns="http://www.w3.org/2000/svg" baseProfile="full" viewBox="0 0 24.00 24.00"><path d="M18 7h-2.81a6 6 0 0 0-1.82-2L15 3.41 13.59 2l-2.17 2.17a6.002 6.002 0 0 0-2.83 0L6.41 2 5 3.41 6.62 5a6.06 6.06 0 0 0-1.81 2H2v2h2.09c-.055.33-.085.665-.09 1v1H2v2h2v1c.005.335.035.67.09 1H2v2h2.81A6 6 0 0 0 12 19.65a4.638 4.638 0 0 1 0-.65 6 6 0 0 1 4-5.65V13h2v-2h-2v-1a6.637 6.637 0 0 0-.09-1H18V7zm-6 8H8v-2h4v2zm0-4H8V9h4v2zm5.75 11.16l-2.75-3L16.16 18l1.59 1.59L21.34 16l1.16 1.41-4.75 4.75z"/></svg>