<svg xmlns="http://www.w3.org/2000/svg" baseProfile="full" viewBox="0 0 24.00 24.00"><path d="M18 7h-2.81a6 6 0 0 0-1.82-2L15 3.41 13.59 2l-2.17 2.17a6.002 6.002 0 0 0-2.83 0L6.41 2 5 3.41 6.62 5a6.06 6.06 0 0 0-1.81 2H2v2h2.09c-.055.33-.085.665-.09 1v1H2v2h2v1c.005.335.035.67.09 1H2v2h2.81A6 6 0 0 0 12 19.65a4.638 4.638 0 0 1 0-.65 6 6 0 0 1 .25-1.69A4 4 0 0 1 6 14v-4a4 4 0 0 1 8 0v4a2.78 2.78 0 0 1-.05.58A6 6 0 0 1 16 13.35V13h2v-2h-2v-1a6.637 6.637 0 0 0-.09-1H18V7zm3.34 9l-3.59 3.59L16.16 18 15 19.16l2.75 3 4.75-4.75L21.34 16zM12 9v2H8V9h4zm0 4v2H8v-2h4z"/></svg>