<svg xmlns="http://www.w3.org/2000/svg" baseProfile="full" viewBox="0 0 24.00 24.00"><path d="M16.5 3.984V8.25l2.86 1.688-.75 1.218L15 9V3.984h1.5zm-.516 9c1.375 0 2.555-.484 3.54-1.453.984-.969 1.476-2.14 1.476-3.515s-.492-2.555-1.477-3.54C18.54 3.493 17.36 3 15.984 3s-2.546.492-3.515 1.477c-.969.984-1.453 2.164-1.453 3.539s.484 2.546 1.453 3.515c.969.969 2.14 1.453 3.515 1.453zm-2.484 6c.438 0 .797-.148 1.078-.445.281-.297.422-.648.422-1.055 0-.406-.14-.757-.422-1.054-.281-.297-.64-.446-1.078-.446-.438 0-.797.149-1.078.446A1.482 1.482 0 0 0 12 17.484c0 .407.14.758.422 1.055.281.297.64.445 1.078.445zm-10.5-6h8.11C9.702 11.641 9 9.984 9 8.016H3v4.968zm1.5 6c.438 0 .797-.148 1.078-.445.281-.297.422-.648.422-1.055 0-.406-.14-.757-.422-1.054-.281-.297-.64-.446-1.078-.446-.438 0-.797.149-1.078.446A1.482 1.482 0 0 0 3 17.484c0 .407.14.758.422 1.055.281.297.64.445 1.078.445zm11.484-18c1.938 0 3.594.688 4.97 2.063 1.374 1.375 2.062 3.031 2.062 4.969 0 1.75-.578 3.273-1.735 4.57-1.156 1.297-2.578 2.07-4.265 2.32V18c0 .844-.344 1.578-1.032 2.203v1.781c0 .282-.093.524-.28.727a.917.917 0 0 1-.704.305h-.984a.992.992 0 0 1-.727-.305.992.992 0 0 1-.305-.727V21H5.016v.984a.992.992 0 0 1-.305.727.992.992 0 0 1-.727.305H3a.917.917 0 0 1-.703-.305 1.034 1.034 0 0 1-.281-.727v-1.78C1.328 19.577.984 18.843.984 18V8.016c0-1.594.688-2.664 2.063-3.211 1.375-.547 3.36-.82 5.953-.82.125 0 .328.007.61.023.28.015.484.023.609.023C11.625 2 13.547.984 15.984.984z"/></svg>