<svg xmlns="http://www.w3.org/2000/svg" baseProfile="full" viewBox="0 0 24.00 24.00"><path d="M16 1a7 7 0 0 1 .992 13.93V18c0 .844-.344 1.578-1.031 2.203v1.781c0 .282-.094.524-.281.727a.917.917 0 0 1-.703.305h-.985a.992.992 0 0 1-.726-.305.992.992 0 0 1-.305-.727V21H5.039v.984a.992.992 0 0 1-.305.727.992.992 0 0 1-.726.305h-.985a.917.917 0 0 1-.703-.305 1.034 1.034 0 0 1-.28-.727l-.001-1.78c-.687-.626-1.031-1.36-1.031-2.204V8.016c0-1.594.687-2.664 2.062-3.211 1.371-.546 3.348-.819 5.93-.82l1.231.049A6.992 6.992 0 0 1 16 1zm0 2a5 5 0 1 0 0 10 5 5 0 0 0 0-10zm-1 7h2v2h-2v-2zm0-6h2v5h-2V4zM3.023 12.984h8.062A6.979 6.979 0 0 1 9 8.016H3.023v4.968zM4.523 16a1.5 1.5 0 1 0 0 3 1.5 1.5 0 0 0 0-3zm8.954 0a1.5 1.5 0 1 0 0 3 1.5 1.5 0 0 0 0-3z"/></svg>