<svg xmlns="http://www.w3.org/2000/svg" baseProfile="full" viewBox="0 0 24.00 24.00"><path d="M8 11l1.5-4.5h9L20 11m-1.5 5a1.5 1.5 0 1 1 0-3 1.5 1.5 0 0 1 0 3zm-9 0a1.5 1.5 0 1 1 0-3 1.5 1.5 0 0 1 0 3zM19.92 6a1.49 1.49 0 0 0-1.42-1h-9a1.49 1.49 0 0 0-1.42 1L6 12v8a1 1 0 0 0 1 1h1a1 1 0 0 0 1-1v-1h10v1a1 1 0 0 0 1 1h1a1 1 0 0 0 1-1v-8l-2.08-6zm-5-3a1.49 1.49 0 0 0-1.42-1h-9a1.49 1.49 0 0 0-1.42 1L1 9v8a1 1 0 0 0 1 1h1a1 1 0 0 0 1-1v-4.09A1.5 1.5 0 0 1 4.5 10h.07l.7-2H3l1.5-4.5h10.59l-.17-.5z"/></svg>