<svg xmlns="http://www.w3.org/2000/svg" viewBox="0 0 48.827 48.827"><path d="M48.15 6.05l-4.368-4.362a2.308 2.308 0 0 0-1.636-.677c-.593 0-1.186.225-1.636.676l-3.494 3.484 7.64 7.626 3.494-3.483a2.305 2.305 0 0 0 0-3.264zM14.336 27.81l7.64 7.627 21.045-21.006-7.64-7.627zM12.687 29.441l-1.631 9.253 9.271-1.627z"/><path d="M33.807 42.816H5.001V14.011H25.33l5.01-5H3.234A3.243 3.243 0 0 0 0 12.245v32.338a3.243 3.243 0 0 0 3.234 3.233h32.339a3.242 3.242 0 0 0 3.232-3.233V21.462l-5 4.992.002 16.362z"/></svg>