<svg xmlns="http://www.w3.org/2000/svg" viewBox="0 0 50.494 50.495"><path d="M21.66 25.249a3.968 3.968 0 0 0 3.966 3.966c1.538 0 2.856-.885 3.515-2.163l.011.01L36.391 14l-12.708 7.794.012.012c-1.209.681-2.035 1.959-2.035 3.443zM41.604 6.351C37.542 2.799 32.291.531 26.291.192v6.027c5 .318 7.945 1.906 10.904 4.384l4.409-4.252zM44.436 23.37h6.021c-.404-6-2.751-10.93-6.396-14.97l-4.26 4.233c2.566 2.94 4.254 6.737 4.635 10.737z"/><path d="M44.463 26.37c-.637 10-8.922 17.933-19.042 17.933C14.886 44.302 6 35.757 6 25.223 6 15.195 14.289 6.99 23.289 6.22V.193C10.289.972 0 11.91 0 25.249c0 13.844 11.42 25.053 25.263 25.053 13.432 0 24.59-10.933 25.231-23.933h-6.031z"/></svg>