<svg xmlns="http://www.w3.org/2000/svg" viewBox="0 0 129 129"><path d="M16.2 42.7c-3 6.7-4.8 14.1-4.8 21.9 0 12.8 4.6 24.9 12.8 34.5L7.6 115.8c-1.6 1.6-1.6 4.2 0 5.8.8.8 1.8 1.2 2.9 1.2 1 0 2.1-.4 2.9-1.2L30 104.9c9.6 8.2 21.7 12.7 34.5 12.7 13.1 0 25.2-4.8 34.4-12.8l16.6 16.7c.8.8 1.8 1.2 2.9 1.2 1 0 2.1-.4 2.9-1.2 1.6-1.6 1.6-4.2 0-5.8L104.7 99c8-9.3 12.8-21.3 12.8-34.5 0-7.8-1.7-15.2-4.8-21.9 5.9-3.4 9.8-9.8 9.8-16.9 0-10.8-8.8-19.6-19.6-19.6C95.8 6.1 89.4 10 86 16c-6.6-3-13.9-4.6-21.6-4.6-7.7 0-15 1.7-21.6 4.6-3.4-6-9.8-9.9-16.9-9.9C15.2 6.3 6.4 15 6.4 25.8c0 7.1 3.9 13.4 9.8 16.9zM103 14.4c6.3 0 11.4 5.1 11.4 11.4 0 4-2.1 7.7-5.5 9.7-.1-.1-.1-.2-.2-.3-.7-1-1.4-2-2.2-3-.4-.5-.7-1-1-1.4-1-1.3-2.1-2.5-3.3-3.6-.6-.7-1.3-1.3-2-1.9-.7-.6-1.4-1.3-2.1-1.9L96 21.9c-.7-.6-1.5-1.1-2.3-1.6-.2-.1-.3-.2-.5-.4 2.1-3.3 5.8-5.5 9.8-5.5zM36.3 29.7c.9-.7 1.8-1.4 2.7-2 .2-.1.4-.3.6-.4 7.1-4.8 15.7-7.5 24.9-7.5s17.7 2.8 24.8 7.5c.2.2.4.3.7.5.9.6 1.8 1.3 2.6 2 .2.2.4.3.6.5 1 .9 2 1.7 3 2.7.9.9 1.7 1.9 2.6 2.8.2.3.5.6.7.9.6.7 1.2 1.5 1.7 2.3.2.3.5.6.7.9 4.7 7.1 7.5 15.6 7.5 24.8 0 11.7-4.5 22.3-11.8 30.3-.7.2-1.3.5-1.9 1-.5.5-.8 1.2-1 1.9-8 7.3-18.6 11.8-30.2 11.8-12.3 0-23.7-4.9-32.3-13.7-8.2-8.4-12.6-19.5-12.6-31.2 0-9.2 2.8-17.7 7.5-24.8l.6-.9c.6-.8 1.1-1.6 1.7-2.3.2-.3.4-.6.7-.8 1.7-2 3.6-3.9 5.6-5.6.2-.4.4-.6.6-.7zM26 14.4c4 0 7.7 2.2 9.7 5.5-.2.1-.3.2-.5.4-.8.5-1.5 1.1-2.2 1.6-.7.5-1.4 1-2.1 1.6-.7.6-1.3 1.2-2 1.8-.9.8-1.7 1.6-2.6 2.5-1 1-2 2.1-2.9 3.2-.4.5-.7 1-1.1 1.5-.7 1-1.5 1.9-2.1 2.9-.1.1-.1.2-.2.3-3.3-2-5.5-5.7-5.5-9.7.1-6.5 5.2-11.6 11.5-11.6z"/><path d="M64.5 68.7h17.6c2.3 0 4.1-1.8 4.1-4.1s-1.8-4.1-4.1-4.1H68.6V39.2c0-2.3-1.8-4.1-4.1-4.1s-4.1 1.8-4.1 4.1v25.4c0 2.2 1.8 4.1 4.1 4.1z"/></svg>