<svg xmlns="http://www.w3.org/2000/svg" viewBox="0 0 52.62 52.62"><path d="M49.829 4.313H21.933a2.79 2.79 0 0 0-2.789 2.789v5.995h12.268c2.2 0 4 1.8 4 4v20.689h6.049c.771 0 1.163-.58.877-1.295l-1.993-4.981h10.183a2.094 2.094 0 0 0 2.093-2.095V7.104a2.793 2.793 0 0 0-2.792-2.791z"/><path d="M30.685 14.833H2.789A2.79 2.79 0 0 0 0 17.622v22.316c0 1.156.936 2.093 2.092 2.093h10.182l-1.992 4.981c-.285.715.106 1.295.877 1.295h11.158c.771 0 1.163-.58.877-1.295l-1.993-4.981h10.182a2.093 2.093 0 0 0 2.092-2.093V17.622a2.79 2.79 0 0 0-2.79-2.789zM16.737 40.236a1.48 1.48 0 1 1 0-2.961 1.48 1.48 0 0 1 0 2.961zm12.737-5.178H3.999V18.833h25.475v16.225z"/></svg>