<svg xmlns="http://www.w3.org/2000/svg" viewBox="0 0 129 129"><path d="M37.8 87.4c-9.7 0-17.6 7.9-17.6 17.6s7.9 17.6 17.6 17.6c9.4 0 17-7.4 17.5-16.6l9.1-21.5 9.1 21.3c.5 9.3 8.2 16.7 17.6 16.7 9.8 0 17.7-7.9 17.7-17.7s-7.9-17.7-17.7-17.7c-5.6 0-10.6 2.6-13.9 6.7L68.8 74l26.1-61.7c.9-2.1-.1-4.5-2.2-5.3-2.1-1-4.5 0-5.4 2l-23 54.5L41 9c-.9-2.1-3.3-3-5.4-2.1-2.1.9-3 3.3-2.1 5.4L59.9 74l-8.4 20c-3.3-4.1-8.2-6.6-13.7-6.6zm9.4 17.5c0 5.2-4.2 9.4-9.4 9.4s-9.4-4.2-9.4-9.4 4.2-9.4 9.4-9.4c5.1 0 9.3 4.2 9.4 9.4zm43.9-9.7c5.3 0 9.5 4.3 9.5 9.5s-4.3 9.5-9.5 9.5-9.5-4.3-9.5-9.5 4.2-9.5 9.5-9.5z"/></svg>