<svg xmlns="http://www.w3.org/2000/svg" viewBox="0 0 90 90"><path d="M51.395 22.505v-8.812c12 2.771 20.651 11.033 23.41 24.033h-8.769c-2.272-8-7.641-12.938-14.641-15.221zm-13.001-.007v-8.805c-14 2.771-21.354 11.033-24.114 24.033h8.773c2.275-8 8.341-12.938 15.341-15.228zM23.053 49.727H14.28c2.763 15 10.114 21.971 24.114 24.74v-8.806c-7-2.281-13.062-8.934-15.341-15.934zm61.28-5.641c0 22.064-17.812 39.951-39.786 39.951S4.76 66.15 4.76 44.086c0-22.069 17.813-39.95 39.787-39.95 21.976 0 39.786 17.881 39.786 39.95zm-3.985-.005c0-19.854-16.031-35.953-35.804-35.953-19.775 0-35.802 16.1-35.802 35.953 0 19.856 16.026 35.944 35.802 35.944 19.772.002 35.804-16.086 35.804-35.944zM44.544 62.293c-10.02-.012-18.123-8.154-18.142-18.207.019-10.065 8.122-18.2 18.142-18.22 10.022.02 18.122 8.154 18.138 18.22-.016 10.053-8.114 18.196-18.138 18.207zm14.11-18.207c0-7.827-6.313-14.175-14.106-14.175s-14.112 6.348-14.112 14.175c0 7.822 6.317 14.163 14.111 14.163s14.107-6.34 14.107-14.163zm-7.259 21.576v8.805c12-2.77 20.651-9.74 23.41-24.74h-8.769c-2.276 7-7.641 13.653-14.641 15.935zm34.203 1.736c-2.436 0-4.412 1.982-4.412 4.429s1.978 4.428 4.412 4.428S90 74.274 90 71.827s-1.969-4.429-4.402-4.429zM74.941 78.686c-3.115 0-5.635 2.529-5.635 5.658 0 3.12 2.52 5.656 5.635 5.656 3.106 0 5.634-2.536 5.634-5.656 0-3.129-2.527-5.658-5.634-5.658zm9.25-25.672c-1.418 0-2.571 1.158-2.571 2.582s1.153 2.582 2.571 2.582c1.426 0 2.576-1.158 2.576-2.582s-1.15-2.582-2.576-2.582zM6.207 82.958a2.836 2.836 0 0 0-2.831 2.841 2.838 2.838 0 0 0 2.831 2.85 2.84 2.84 0 0 0 2.829-2.85 2.837 2.837 0 0 0-2.829-2.841zm-.89-14.95a2.708 2.708 0 0 0-2.707 2.713 2.715 2.715 0 0 0 2.707 2.717 2.71 2.71 0 0 0 2.701-2.717 2.702 2.702 0 0 0-2.701-2.713zm8.839 6.842a3.636 3.636 0 0 0-3.626 3.643 3.631 3.631 0 0 0 3.626 3.641 3.628 3.628 0 0 0 3.627-3.641 3.631 3.631 0 0 0-3.627-3.643zm71.469-55.141a1.887 1.887 0 0 0-1.884 1.898c0 1.04.842 1.893 1.884 1.893a1.894 1.894 0 0 0 1.891-1.893 1.89 1.89 0 0 0-1.891-1.898zM3.186 11.745a3.195 3.195 0 0 0 0 6.391 3.19 3.19 0 0 0 3.187-3.192 3.191 3.191 0 0 0-3.187-3.199zM10.497 0a4.005 4.005 0 0 0-4.002 4.019 4.002 4.002 0 0 0 4.002 4.011 4.002 4.002 0 0 0 3.997-4.011C14.494 1.795 12.706 0 10.497 0zM4.226 24.898a2.011 2.011 0 0 0-2.008 2.017c0 1.11.896 2.016 2.008 2.016 1.109 0 2.01-.905 2.01-2.016a2.014 2.014 0 0 0-2.01-2.017z"/></svg>