<svg xmlns="http://www.w3.org/2000/svg" viewBox="0 0 90 90"><path d="M90 22.602h-6.232v.014h-5.313V5H44.762v17.37H33.208v22.696H5.904V22.37H0v22.819h5.902v6.082h10.58V61.81H12.05v6.205h14.98v10.789H12.05V68.016H6.025V85H33.073V68.016H27.05v-6.205h-4.428v-10.54h16.975v33.555h5.958v.062h39.288V49.893H90V22.602zM72.221 10.956v22.328H50.818V10.956h21.403zm-7.02 67.849V61.811h-5.482v16.994H45.746V45.065H39.35V28.694h5.412v10.792H78.452V28.694h5.314V45.19h-5.07v33.615H65.201zM27.051 22.37v-5.955h6.156v5.955h-6.156zm0-5.954h-15v-6.201h15v6.201zm-15 5.954H5.905v-5.955h6.146v5.955z"/></svg>