<svg xmlns="http://www.w3.org/2000/svg" baseProfile="full" viewBox="0 0 24.00 24.00"><path d="M18 4.007c-1.709 0-2.752.323-3.348.602A5.947 5.947 0 0 0 12 4.007a5.947 5.947 0 0 0-2.652.602C8.752 4.33 7.709 4.007 6 4.007c-3 0-5 8-5 10 0 .827 1.322 1.582 3.135 1.895.647 2.233 3.663 3.947 7.365 4.091V15.72c-.592-.367-1.5-1.036-1.5-1.713 0-1 2-1 2-1s2 0 2 1c0 .677-.908 1.346-1.5 1.713v4.273c3.702-.143 6.718-1.857 7.365-4.091C21.678 15.589 23 14.834 23 14.007c0-2-2-10-5-10zM4.15 13.866c-.504-.112-.894-.252-1.127-.37.231-2.766 2.175-7.1 3.028-7.488.539.002.962.047 1.322.105-2.106 2.309-2.929 5.925-3.223 7.753zM9 12.007a1 1 0 1 1 0-2 1 1 0 0 1 0 2zm6 0a1 1 0 1 1 0-2 1 1 0 0 1 0 2zm4.85 1.859c-.295-1.828-1.118-5.444-3.223-7.753.36-.058.782-.103 1.322-.105.853.388 2.797 4.722 3.028 7.488-.232.118-.622.257-1.127.37z"/></svg>