<svg xmlns="http://www.w3.org/2000/svg" viewBox="0 0 430.123 430.123"><path d="M348.911 169.42L220.258 91.062l81.133-67.164 128.732 79.217-81.212 66.305zm-48.379 148.112l123.547-72.331-74.31-62.858-120.961 73.191 71.724 61.998zm-99.204-61.998L80.355 182.343 6.06 245.201l123.559 72.331 71.709-61.998zM86.406 307.199v23.251l123.472 75.774v-143.81l-81.989 67.168-41.483-22.383zm257.306 0l-41.453 22.388-82.001-67.173v143.811l123.454-75.774v-23.252zM209.878 91.062l-81.135-67.164L0 103.115l81.226 66.305 128.652-78.358z"/></svg>