<svg xmlns="http://www.w3.org/2000/svg" baseProfile="full" viewBox="0 0 24.00 24.00"><path d="M22 14.215s-4.39 3.136-7.276 3.178c-2.885.042-2.592-1.83-2.592-1.83s10.579-3.621 7.694-10.772c-1.297-1.84-2.802-2.417-4.935-2.376-2.132.042-4.716 1.343-6.43 5.19-.82 1.836-1.055 3.576-1.222 4.894 0 0-1.915.378-2.918-.458-1.004-.836-1.552 0-1.552 0s-1.737 2.164-.023 2.833c1.715.669 4.375.95 4.375.95h-.002c.246 1.171.96 3.191 3.048 4.778 3.136 2.383 9.157-.204 9.157-.204m-7.694-8.064c.125-4.976 3.387-7.15 4.516-6.064 1.129 1.088.71 3.43-1.422 4.893-2.133 1.463-3.094 1.17-3.094 1.17z"/></svg>