<svg xmlns="http://www.w3.org/2000/svg" viewBox="0 0 90 90"><path d="M18.604 88.889c7.581-.33 16.789 0 25.766 0 9.267 0 18.754-.615 26.227 0 3.019.25 5.796 2.057 8.283.457 1.92-2.474.496-5.793.921-9.119.807-6.316 6.631-13.889-1.843-15.5-3.608 3.289-1.176 6.412-3.219 10.486-2.475 4.932-11.342 6.639-19.785 7.293-7.246.562-19.947 1.289-22.547-3.646-2.195-4.165-.922-10.625-.922-15.956 0-6.03-.647-11.804.922-16.414 9.205.673 21.109-3.068 27.607.911 4.347 2.664 1.875 7.877 6.901 9.574 3.46-.93 1.613-5.401 1.379-9.574-.147-2.689-.137-6.468 0-9.574.187-4.192 1.805-9.054-2.762-9.118-3.586 2.787-.89 7.432-4.602 10.029-1.187.832-3.763 1.183-5.519 1.37-6.896.728-17.712.134-23.469-.913-.793-8.402-.725-19.852 0-28.266 3.125-3.104 10.313-3.212 15.185-3.193 8.535.034 21.846.744 24.387 5.016 1.383 2.324.286 7.188 2.762 7.75 4.979 1.137 2.559-7.747 2.762-11.854.15-3.079 1.511-5.062.918-7.295-1.61-2.201-4.012-1.098-5.52-.911-15.657 1.935-39.437.91-56.133.91-1.994 0-5.477-.994-6.901 1.368-.963 5.266 6.226 3.089 8.741 5.927.818.923 2.027 5 2.301 7.751.728 7.307 0 18.467 0 29.179 0 11.319.859 22.737 0 29.636-.3 2.408-1.753 6.289-2.301 6.838-3.135 3.133-11.422-.336-10.584 6.385 2.912 1.959 7.129.625 11.045.453z"/></svg>