<svg xmlns="http://www.w3.org/2000/svg" baseProfile="full" viewBox="0 0 24.00 24.00"><path d="M13.344 8.166a1.698 1.698 0 0 1-1.693-1.693c0-.931.762-1.693 1.693-1.693s1.693.762 1.693 1.693-.762 1.693-1.693 1.693zm-3.047 11.767L4.37 18.747l.339-1.693 4.147.847 1.355-6.857-1.524.593v2.878H6.995v-3.979l4.402-1.862.677-.085c.593 0 1.1.339 1.44.847l.846 1.354c.677 1.185 2.031 2.032 3.64 2.032v1.693a6.199 6.199 0 0 1-4.656-2.116l-.508 2.54 1.778 1.692v6.349H12.92V17.9l-1.778-1.692-.847 3.725zM21 23h-2V3H6v13.115l-2-.425V1h17v22zM6 23H4v-3.221l2 .425V23z"/></svg>