<svg xmlns="http://www.w3.org/2000/svg" viewBox="0 0 129 129"><path d="M118.5 76.7c-2.3 0-4.1 1.8-4.1 4.1v33.5H14.6V14.6h33.5c2.3 0 4.1-1.8 4.1-4.1s-1.8-4.1-4.1-4.1H10.5c-2.3 0-4.1 1.8-4.1 4.1v107.9c0 2.3 1.8 4.1 4.1 4.1h107.9c2.3 0 4.1-1.8 4.1-4.1V80.8c.1-2.2-1.8-4.1-4-4.1z"/><path d="M122.3 9c-.5-1-1.3-1.8-2.3-2.3h-.1c-.5-.2-1-.3-1.5-.3h-54c-2.3 0-4.1 1.8-4.1 4.1s1.8 4.1 4.1 4.1h44.1l-47 47c-1.6 1.6-1.6 4.2 0 5.8.8.8 1.8 1.2 2.9 1.2 1 0 2.1-.4 2.9-1.2l47-47v44.1c0 2.3 1.8 4.1 4.1 4.1s4.1-1.8 4.1-4.1v-54c.1-.5-.1-1-.2-1.5z"/></svg>