<svg xmlns="http://www.w3.org/2000/svg" viewBox="0 0 129 129"><path d="M122.7 56c-.3-1.4-1.4-2.5-2.7-3L86.3 41.7l-18-33.1c-.7-1.4-2.2-2.2-3.7-2.2s-3 .8-3.7 2.2L43 41.6 9.2 51.8c-1.4.4-2.5 1.5-2.8 2.9-.4 1.4 0 2.9 1 4L29.6 83l-9.2 34.3c-.4 1.5.1 3.2 1.3 4.2 1.2 1.1 2.9 1.4 4.3.8l38.6-15.4 38.6 15.4c.5.2 1 .3 1.6.3 1 0 2-.4 2.8-1.1 1.2-1.1 1.7-2.7 1.3-4.2L99.7 83l22-23.1c.9-1.1 1.3-2.5 1-3.9zM92 78.9c-1 1.1-1.4 2.6-1 4l7.7 28.4-32.5-12.8c-.5-.2-1-.3-1.6-.3-.5 0-1.1.1-1.6.3l-32.4 12.9L38.3 83c.4-1.4 0-2.9-1-3.9L18 57.9l29.1-8.7c1.1-.3 2-1 2.5-2l15-27.7 15 27.7c.5.9 1.3 1.6 2.4 2l29 9.7-19 20z"/></svg>