<svg xmlns="http://www.w3.org/2000/svg" viewBox="0 0 129 129"><path d="M18.7 122.5h91.6c2.3 0 4.1-1.8 4.1-4.1V10.5c0-2.3-1.8-4.1-4.1-4.1H41.6c-.3 0-.7 0-1 .1-.1 0-.2.1-.2.1-.3.1-.5.2-.8.3-.1.1-.2.1-.3.2-.3.2-.6.4-.8.7l-22.9 27c-.3.3-.5.7-.7 1.1-.1.1-.1.3-.1.4-.1.3-.1.6-.2.9V118.3c0 2.4 1.9 4.2 4.1 4.2zM37.5 21.7v11.8h-10l10-11.8zM22.8 41.6h18.8c2.3 0 4.1-1.8 4.1-4.1V14.6h60.5v99.7H22.8V41.6z"/><path d="M94 50.5H35c-2.3 0-4.1 1.8-4.1 4.1s1.8 4.1 4.1 4.1h59c2.3 0 4.1-1.8 4.1-4.1s-1.8-4.1-4.1-4.1zM94 70.3H35c-2.3 0-4.1 1.8-4.1 4.1s1.8 4.1 4.1 4.1h59c2.3 0 4.1-1.8 4.1-4.1 0-2.2-1.8-4.1-4.1-4.1z"/></svg>