<svg xmlns="http://www.w3.org/2000/svg" baseProfile="full" viewBox="0 0 24.00 24.00"><path d="M2.688 2c.85-.048 3.391 1.164 3.437 1.188a10.855 10.855 0 0 0-3.219 3.187C2.086 4.811 1.34 2.908 2 2.25c.165-.165.404-.234.688-.25zm18.156.125c.405-.04.736.017.937.219 1.073 1.073-1.903 5.808-2.406 6.312-.505.502-1.801.041-2.875-1.031-1.074-1.074-1.532-2.369-1.031-2.875.41-.408 3.617-2.45 5.375-2.625zM12 2.563c1.289 0 2.53.26 3.656.718-.482.317-.847.567-.969.688-.982.987-.547 2.86 1.032 4.437.979.977 2.117 1.563 3.062 1.563.68 0 1.136-.293 1.375-.531.173-.173.442-.555.75-1.032a9.638 9.638 0 0 1 .782 3.844c0 5.358-4.332 9.719-9.688 9.719-5.359 0-9.688-4.36-9.688-9.719A9.678 9.678 0 0 1 12 2.562z"/></svg>