<svg xmlns="http://www.w3.org/2000/svg" viewBox="0 0 129 129"><circle cx="76" cy="42.4" r="6.6"/><path d="M6.4 119.5s0 .1 0 0c0 .1 0 .1.1.1.1.2.2.5.3.7 0 .1.1.1.1.2s.1.1.1.2l.1.1c.1.2.3.3.4.5l.1.1.2.2c.1 0 .1.1.1.1.1.1.2.1.3.2l.1.1s.1 0 .1.1c.1.1.3.1.4.2.1 0 .1 0 .2.1.1 0 .2.1.2.1.3.1.6.1.9.1h108.2c2.3 0 4.1-1.8 4.1-4.1V10.6c0-2.3-1.8-4.1-4.1-4.1H10.4c-2.3 0-4.1 1.8-4.1 4.1v107.7c0 .3.1.7.1 1v.2zm108.1-5.2H24.1l66.8-43.7 23.6 22.5v21.2zm-100-99.6h100v67.1L94.2 62.4c-1.4-1.3-3.5-1.5-5.1-.5L70 74.5 56.7 61.1c-1.4-1.4-3.5-1.6-5.1-.6L14.5 83.9V14.7zm0 78.9l38.7-24.4 9.8 9.9-48.5 31.7V93.6z"/></svg>