<svg xmlns="http://www.w3.org/2000/svg" viewBox="0 0 129 129"><path d="M82.1 32.8H68.3V19.4c0-2.3-1.8-4.1-4.1-4.1s-4.1 1.8-4.1 4.1v13.4H46.9c-22.3 0-40.5 18.1-40.5 40.4 0 22.3 18.1 40.5 40.4 40.5l35.2.1c22.3 0 40.5-18.1 40.5-40.4.1-22.4-18-40.6-40.4-40.6zm-.1 72.8l-35.2-.1C29 105.5 14.5 91 14.6 73.1c0-17.8 14.5-32.3 32.4-32.2l35.1.1c17.8 0 32.3 14.5 32.2 32.3S99.8 105.6 82 105.6z"/><path d="M46 69.3h-4.7v-4.7c0-2.3-1.8-4.1-4.1-4.1s-4.1 1.8-4.1 4.1v4.7h-4.7c-2.3 0-4.1 1.8-4.1 4.1s1.8 4.1 4.1 4.1h4.7v4.7c0 2.3 1.8 4.1 4.1 4.1s4.1-1.8 4.1-4.1v-4.7H46c2.3 0 4.1-1.8 4.1-4.1s-1.8-4.1-4.1-4.1z"/><circle cx="84.6" cy="66.7" r="6.6"/><circle cx="97.8" cy="79.9" r="6.6"/></svg>