<svg xmlns="http://www.w3.org/2000/svg" baseProfile="full" viewBox="0 0 24.00 24.00"><path d="M12 2C6.477 2 2 6.477 2 12s4.477 10 10 10 10-4.477 10-10S17.523 2 12 2zm0 2a8 8 0 0 1 8 8c0 2.4-1 4.5-2.7 6-1.4-1.3-3.3-2-5.3-2s-3.8.7-5.3 2C5 16.5 4 14.4 4 12a8 8 0 0 1 8-8zm2.018 1.893a1.01 1.01 0 0 0-.918.652L11.813 9.77l-.102.252a2 2 0 1 0 1.86.74l.099-.25 1.287-3.228.01-.023a1 1 0 0 0-.95-1.37zM10 6a1 1 0 1 0 0 2 1 1 0 0 0 0-2zM7 9a1 1 0 1 0 0 2 1 1 0 0 0 0-2zm10 0a1 1 0 1 0 0 2 1 1 0 0 0 0-2z"/></svg>