<svg xmlns="http://www.w3.org/2000/svg" baseProfile="full" viewBox="0 0 24.00 24.00"><path d="M12 2c5.523 0 10 4.477 10 10s-4.477 10-10 10S2 17.523 2 12 6.477 2 12 2zm0 2a8 8 0 0 0-8 8c0 2.4 1 4.5 2.7 6 1.4-1.3 3.3-2 5.3-2s3.8.7 5.3 2c1.7-1.5 2.7-3.6 2.7-6a8 8 0 0 0-8-8zm2 2a1 1 0 1 1 0 2 1 1 0 0 1 0-2zm-4 0a1 1 0 1 1 0 2 1 1 0 0 1 0-2zM6.914 8.94c.124.001.246.026.385.082l3.22 1.302.252.102a2 2 0 0 1 1.979-.28 2 2 0 1 1-2.729 2.133l-.25-.101-3.222-1.301-.024-.01a1 1 0 0 1 .39-1.928zM17 9a1 1 0 1 1 0 2 1 1 0 0 1 0-2z"/></svg>