<svg xmlns="http://www.w3.org/2000/svg" baseProfile="full" viewBox="0 0 24.00 24.00"><path d="M10.283 2c-.358.003-.71.035-1.05.097-3.621.662-6.169 3.794-6.385 5.859-.106 1.012.44 1.77.741 2.105.814.904 2.436 1.595 3.48 2.167-1.508 1.286-2.2 1.913-2.881 2.628-1.02 1.07-1.736 2.249-1.739 3.092 0 .272-.044 1.139.31 1.823.132.257.51 1.115 1.65 1.758.728.411 1.765.562 2.781.417 3.143-.448 7.353-3.114 10.357-5.597 1.914-1.582 3.313-3.116 3.718-3.87.326-.61.362-1.702.173-2.388-.537-1.948-4.906-5.938-8.478-7.544A6.521 6.521 0 0 0 10.283 2zm1.061 2.906c.241 0 .463.03.644.08 1.16.317 3.09 1.694 2.917 2.955-.226 1.654-1.67 2.326-3.346 2.093-.977-.136-2.931-1.237-2.784-3.141.115-1.488 1.525-1.993 2.57-1.987zm-.027 1.743c-.265-.002-.48.065-.579.217-.464.72-.253 1.229.178 1.554.159-.382 1.795.035 1.835.366 1.42-1.07-.393-2.13-1.434-2.137z"/></svg>