<svg xmlns="http://www.w3.org/2000/svg" baseProfile="full" viewBox="0 0 24.00 24.00"><path d="M12 12.14c-.906-1.374-1.86-2.359-2.86-2.953-1-.593-1.874-.804-2.624-.632-.75.172-1.375.586-1.875 1.242a3.312 3.312 0 0 0-.657 2.015V12c0 .781.125 1.578.375 2.39.094.25.157.25.188 0 .125-.624.414-1.078.867-1.359.453-.281 1.055-.273 1.805.024.75.297 1.484.93 2.203 1.898 1.281 1.719 2.781 2.766 4.5 3.14 2.219.313 3.89-.39 5.015-2.109.313-.593.547-1.125.704-1.593.093-.313.047-.344-.141-.094-.469.625-1.102 1.031-1.898 1.219-.797.187-1.711.007-2.743-.54-1.03-.546-1.984-1.492-2.859-2.835zm4.969-3.984c-1.563-2.344-3.25-3.672-5.063-3.984-1.437-.219-3 .281-4.687 1.5-.219.156-.32.242-.305.258.016.015.149-.04.399-.164 2.5-1.22 4.906.062 7.218 3.843.5.844 1.024 1.5 1.57 1.97.547.468 1.063.75 1.547.843.485.094.922.078 1.313-.047.39-.125.742-.328 1.055-.61 0-.593-.11-1.25-.328-1.968-.5.125-.946.086-1.336-.117-.391-.203-.852-.711-1.383-1.524zM12 2.016c2.75 0 5.102.976 7.055 2.93 1.953 1.952 2.93 4.304 2.93 7.054s-.977 5.102-2.93 7.055c-1.953 1.953-4.305 2.93-7.055 2.93s-5.102-.977-7.055-2.93C2.992 17.102 2.015 14.75 2.015 12s.977-5.102 2.93-7.055C6.898 2.992 9.25 2.015 12 2.015z"/></svg>