<svg xmlns="http://www.w3.org/2000/svg" baseProfile="full" viewBox="0 0 24.00 24.00"><path d="M9.984 12.984c.563 0 1.04.196 1.43.586.39.39.586.867.586 1.43v6.984c0 .188-.094.282-.281.282-.063 0-.14-.047-.235-.141l-4.5-4.453v-4.688h3zm2.532-11.109l4.5 4.453v4.688h-3a1.945 1.945 0 0 1-1.43-.586A1.945 1.945 0 0 1 12 9V2.016c0-.188.094-.282.281-.282.063 0 .14.047.235.141zM21.984 12c.188 0 .282.094.282.281 0 .063-.047.14-.141.235l-4.453 4.5h-4.688v-3c0-.563.196-1.04.586-1.43.39-.39.867-.586 1.43-.586h6.984zM6.328 6.984h4.688v3c0 .563-.196 1.04-.586 1.43-.39.39-.867.586-1.43.586H2.016c-.188 0-.282-.094-.282-.281 0-.063.047-.14.141-.235l4.453-4.5z"/></svg>