<svg xmlns="http://www.w3.org/2000/svg" viewBox="0 0 430.118 430.118"><path d="M430.118 171.427c0-94.693-96.282-171.424-215.02-171.424C96.279.002 0 76.734 0 171.427c0 82.25 72.72 150.973 169.749 167.569-2.235 27.442-7.922 58.716-19.896 91.12 47.461-12.644 88.961-55.039 117.682-92.423 93.399-18.668 162.583-86.032 162.583-166.266zM307.309 277.008c-2.875.546-5.769.994-8.709 1.302-3.099.299-6.235.509-9.409.509-2.763 0-5.474-.219-8.177-.443 33.716-24.264 55.669-63.075 55.669-106.948 0-48.188-26.443-90.266-65.913-113.646 5.988-1.162 12.121-1.864 18.421-1.864 57.098 0 103.376 49.907 103.376 111.478-.001 54.858-36.814 100.366-85.258 109.612z"/></svg>