<svg xmlns="http://www.w3.org/2000/svg" baseProfile="full" viewBox="0 0 24.00 24.00"><path d="M7 19h8v3H7v-3zm9.146-7v-.002l-3.18-1.658a.492.492 0 0 0-.368.155l-.3.312.587 2.426-.972.235-1.198-4.945-1.461.652 1.04 4.293-.972.235-.997-4.115-.475.212c-.5.2-.85.73-.85 1.34v4.36c0 .8.73 1.5 1.5 1.5H15c.39 0 .74-.16 1-.43l.482-.413s.518-.375.518-.797l.019-1.659s-.004-1.144-.873-1.701zm.792-10.979a1 1 0 0 0-1.183.775l-1.068 6.173c-.213-.034-.309-.108-.603-.14l-.43.046-1.241-6.073a1 1 0 0 0-1.96.396l1.195 5.91-.003.002.379 1.564c.257-.208.59-.334.943-.334h.346l3.001 1.613 1.401-8.749a1.002 1.002 0 0 0-.777-1.183z"/></svg>