<svg xmlns="http://www.w3.org/2000/svg" baseProfile="full" viewBox="0 0 24.00 24.00"><path d="M19.107 11.916a6.96 6.96 0 0 0 .029-.631c0-3.428-1.428-7.14-2.856-7.14s-2.856 1.428-4.284 1.428S9.14 4.145 7.712 4.145s-2.856 3.644-2.856 7.14c0 .214.008.422.028.631 2.334.532 4.718.801 7.112.797 2.456 0 4.838-.275 7.111-.797zm-15.656 6.26a29.639 29.639 0 0 0 17.085.003c.423-.14.791-.41 1.054-.77a2.138 2.138 0 0 0 .017-2.485 2.126 2.126 0 0 0-1.044-.783 28.56 28.56 0 0 1-8.567 1.308c-2.985 0-5.862-.457-8.565-1.307a2.154 2.154 0 0 0-1.038.785A2.154 2.154 0 0 0 2 16.168c0 .947.611 1.728 1.449 2.014l.002-.006z"/></svg>