<svg xmlns="http://www.w3.org/2000/svg" baseProfile="full" viewBox="0 0 24.00 24.00"><path d="M15.516 9c.687 0 1.273-.242 1.757-.727.485-.484.727-1.07.727-1.757 0-.688-.242-1.282-.727-1.782-.484-.5-1.07-.75-1.757-.75-.688 0-1.282.25-1.782.75s-.75 1.094-.75 1.782c0 .687.25 1.273.75 1.757.5.485 1.094.727 1.782.727zm3.796-.094L22.407 12 21 13.406l-3.14-3.094c-.782.47-1.579.704-2.391.704-1.25 0-2.305-.438-3.164-1.313-.86-.875-1.29-1.937-1.29-3.187 0-1.25.438-2.313 1.313-3.188s1.938-1.312 3.188-1.312c1.25 0 2.312.437 3.187 1.312s1.313 1.938 1.313 3.188c0 .812-.235 1.609-.703 2.39zM16.5 18H5.484l2.766-3.516 1.969 2.344 2.719-3.515L16.5 18zm1.5-5.016L20.016 15v5.016c0 .53-.203.992-.61 1.382-.406.391-.875.586-1.406.586H3.984c-.53 0-.992-.195-1.382-.586a1.891 1.891 0 0 1-.586-1.382V6c0-.531.195-1 .586-1.406.39-.407.851-.61 1.382-.61h5.532A5.2 5.2 0 0 0 9 6H3.984v14.016H18v-7.032z"/></svg>