<svg xmlns="http://www.w3.org/2000/svg" viewBox="0 0 90 90"><path d="M45 0C20.148 0 0 20.148 0 45s20.148 45 45 45 45-20.148 45-45S69.852 0 45 0zm0 81C25.119 81 9 64.881 9 45S25.119 9 45 9s36 16.119 36 36-16.119 36-36 36zm16.48-23.941c.289 3.828-2.584 7.313-6.422 7.791-3.832.476-7.185-2.24-7.472-6.067-.293-3.823 2.59-7.313 6.422-7.787a6.831 6.831 0 0 1 3.41.438V32.639l-18 3.348v23.48h-.035c.008.066.025.127.025.193.291 3.828-2.584 7.309-6.416 7.787-3.84.475-7.18-2.241-7.471-6.064-.295-3.828 2.58-7.316 6.416-7.787a6.723 6.723 0 0 1 3.41.443v-27.07l26.113-4.46.025-.009v.004l.01-.004-.01.119v34.25h-.035c.013.067.025.123.03.19z"/></svg>