<svg xmlns="http://www.w3.org/2000/svg" viewBox="0 0 129 129"><path d="M10.5 58.9h44.3c2.3 0 4.1-1.8 4.1-4.1V10.5c0-2.3-1.8-4.1-4.1-4.1H10.5c-2.3 0-4.1 1.8-4.1 4.1v44.3c0 2.2 1.9 4.1 4.1 4.1zm4.1-44.3h36.1v36.1H14.6V14.6zM122.6 10.5c0-2.3-1.8-4.1-4.1-4.1H74.2c-2.3 0-4.1 1.8-4.1 4.1v44.3c0 2.3 1.8 4.1 4.1 4.1h44.3c2.3 0 4.1-1.8 4.1-4.1V10.5zm-8.2 40.2H78.3V14.6h36.1v36.1zM10.5 122.6h44.3c2.3 0 4.1-1.8 4.1-4.1V74.2c0-2.3-1.8-4.1-4.1-4.1H10.5c-2.3 0-4.1 1.8-4.1 4.1v44.3c0 2.2 1.9 4.1 4.1 4.1zm4.1-44.3h36.1v36.1H14.6V78.3zM118.5 70.1H74.2c-2.3 0-4.1 1.8-4.1 4.1v44.3c0 2.3 1.8 4.1 4.1 4.1h44.3c2.3 0 4.1-1.8 4.1-4.1V74.2c0-2.2-1.9-4.1-4.1-4.1zm-4.1 44.3H78.3V78.3h36.1v36.1z"/></svg>