<svg xmlns="http://www.w3.org/2000/svg" baseProfile="full" viewBox="0 0 24.00 24.00"><path d="M14.624 8.351c-.421.276-1.75 1.034-1.95 1.19-.398.31-.755.29-1.145-.013-.2-.155-1.53-.914-1.951-1.19-.477-.312-.448-.695.084-.919 1.637-.688 3.279-.639 4.905.035.494.205.51.599.057.897m7.216 7.281a19.179 19.179 0 0 0-3.826-5.658c-.543-.556-.87-1.176-1.075-1.88-.096-.334-.166-.675-.238-1.015-.187-.879-.296-1.777-.686-2.607-.742-1.577-2.025-2.4-3.85-2.472-1.82.05-3.162.814-3.955 2.397-.215.428-.362.88-.463 1.344-.168.771-.32 1.546-.498 2.315a3.378 3.378 0 0 1-.962 1.719 19.455 19.455 0 0 0-3.875 5.348c-.14.284-.284.574-.37.876-.19.664.29 1.121.992.966.436-.097.877-.184 1.3-.32.402-.128.565-.05.687.364.63 2.14 2.048 3.654 4.215 4.481 4.122 1.574 8.93-.648 9.97-4.57.072-.269.17-.367.477-.274.457.139.928.242 1.397.34.492.102.845-.15.911-.622.037-.26-.047-.497-.151-.732"/></svg>