<svg xmlns="http://www.w3.org/2000/svg" baseProfile="full" viewBox="0 0 24.00 24.00"><path d="M9.56 12.48a.38.38 0 0 1-.16.31.49.49 0 0 1-.81-.38v-3.9H5.66v4.88a2.44 2.44 0 0 0 2.44 2.44c.58 0 1.141-.21 1.58-.59a1.17 1.17 0 0 1-.57.87 2.26 2.26 0 0 1-1.17.3 3.2 3.2 0 0 1-1.38-.32L6.39 16v2.6a5.58 5.58 0 0 0 2.05.4 4.27 4.27 0 0 0 2.81-1 3.75 3.75 0 0 0 1.24-2.94V8.51H9.56v3.97zm-4.63.91v-7.8H2v7.31a2.64 2.64 0 0 0 2.56 2.93 2.61 2.61 0 0 0 1.07-.24l.12-.07-.1-.11a3 3 0 0 1-.72-2.02zm17.07-2V8.51h-1a3.92 3.92 0 0 0-5.29-2.9 4.1 4.1 0 0 0-2.45 3.57v6.65h.13a2.94 2.94 0 0 0 2.8-2.93h1.22V10h-1.26v-.83a.87.87 0 0 1 .44-.76 1 1 0 0 1 1.51.83v2.69a3.84 3.84 0 0 0 3.77 3.9H22V12.9a1 1 0 0 1-1-1v-.49l1-.02z"/></svg>