<svg xmlns="http://www.w3.org/2000/svg" baseProfile="full" viewBox="0 0 24.00 24.00"><path d="M6.5 8.11A1.61 1.61 0 1 1 8.11 6.5c0 .89-.72 1.61-1.61 1.61zM6.5 2A4.5 4.5 0 0 0 2 6.5c0 3.37 4.5 8.36 4.5 8.36S11 9.87 11 6.5A4.5 4.5 0 0 0 6.5 2zm11 6.11a1.61 1.61 0 1 1 0-3.22 1.61 1.61 0 0 1 0 3.22zm0-6.11A4.5 4.5 0 0 0 13 6.5c0 3.37 4.5 8.36 4.5 8.36S22 9.87 22 6.5A4.5 4.5 0 0 0 17.5 2zm0 14a3 3 0 0 0-2.82 2H9.32a3 3 0 1 0 0 2h5.37a3 3 0 1 0 2.82-4h-.01zm0 4.5a1.5 1.5 0 1 1 0-3 1.5 1.5 0 0 1 0 3z"/></svg>