<svg xmlns="http://www.w3.org/2000/svg" baseProfile="full" viewBox="0 0 24.00 24.00"><path d="M15.5 11.998a4.5 4.5 0 0 1 3.806 6.9l3.084 3.084-1.406 1.407-3.108-3.069a4.5 4.5 0 1 1-2.376-8.322zm0 2a2.5 2.5 0 1 0 0 5 2.5 2.5 0 0 0 0-5zm4-12c.28 0 .5.22.5.5v9.31a6.51 6.51 0 0 0-2-1.312V4.698l-3 1.16v4.159a6.464 6.464 0 0 0-2 .48V5.867l-4-1.4v11.66l.01.004-.01.366c0 .64.092 1.259.264 1.843L8 17.898l-5.34 2.07-.16.03c-.28 0-.5-.22-.5-.5V4.378c0-.23.15-.41.36-.48L8 1.998l6 2.1 5.34-2.07.16-.03zM4 5.458v11.85l3-1.16v-11.7l-3 1.01z"/></svg>