<svg xmlns="http://www.w3.org/2000/svg" baseProfile="full" viewBox="0 0 24.00 24.00"><path d="M20.937 14.002c-.275 1.412-2.459 2.957-4.967 3.257-1.308.156-2.596.3-3.97.236-2.245-.103-4.017-.536-4.017-.536l.04.622c.292 2.216 2.198 2.349 4.003 2.41 1.822.063 3.445-.448 3.445-.448l.075 1.647S14.27 21.874 12 22c-1.252.069-2.807-.032-4.617-.51-3.927-1.04-4.602-5.226-4.706-9.473l-.012-3.444c0-4.343 2.846-5.616 2.846-5.616C6.947 2.298 9.408 2.02 11.968 2h.063c2.56.02 5.023.298 6.457.957 0 0 2.846 1.273 2.846 5.616 0 0 .035 3.204-.397 5.428zm-2.96-5.092c0-1.075-.273-1.93-.823-2.56-.567-.633-1.309-.957-2.23-.957-1.067 0-1.874.41-2.408 1.23l-.519.87-.518-.87c-.534-.82-1.342-1.23-2.408-1.23-.921 0-1.663.324-2.23.956-.55.632-.824 1.486-.824 2.56v5.26h2.084V9.063c0-1.076.452-1.622 1.358-1.622 1.001 0 1.503.648 1.503 1.929v2.794h2.071V9.37c0-1.281.502-1.929 1.503-1.929.905 0 1.358.546 1.358 1.622v5.104h2.083V8.91z"/></svg>