<svg xmlns="http://www.w3.org/2000/svg" viewBox="0 0 129 129"><path d="M90-4H40.9c-2.3 0-4.1 1.8-4.1 4.1v5.7H18.7c-2.3 0-4.1 1.8-4.1 4.1v108c0 2.3 1.8 4.1 4.1 4.1h91.6c2.3 0 4.1-1.8 4.1-4.1V9.9c0-2.3-1.8-4.1-4.1-4.1H94.1V.1C94.1-2.2 92.3-4 90-4zM45 9.9V4.2h40.9v12.9H45V9.9zm61.2 4.1v99.8H22.8V14h14v7.2c0 2.3 1.8 4.1 4.1 4.1H90c2.3 0 4.1-1.8 4.1-4.1V14h12.1z"/><path d="M95 67H35.9c-2.3 0-4.1 1.8-4.1 4.1s1.8 4.1 4.1 4.1H95c2.3 0 4.1-1.8 4.1-4.1S97.3 67 95 67zM65.5 86.8H35.9c-2.3 0-4.1 1.8-4.1 4.1s1.8 4.1 4.1 4.1h29.5c2.3 0 4.1-1.8 4.1-4.1s-1.8-4.1-4-4.1zM31.8 51.2c0 2.3 1.8 4.1 4.1 4.1H95c2.3 0 4.1-1.8 4.1-4.1s-1.8-4.1-4.1-4.1H35.9c-2.3 0-4.1 1.9-4.1 4.1z"/></svg>