<svg xmlns="http://www.w3.org/2000/svg" viewBox="0 0 90 90"><path d="M26.564 64.689h58.859C78.527 78.945 64.648 88.549 49.104 90h-8.25c-4.931-.46-9.715-1.736-14.289-3.791l-.001-21.52zM63.553 4.043C57.684 1.371 51.439 0 44.998 0c-5.362 0-10.64 1.035-15.713 2.941 1.189 1.081 32.734 29.77 34.268 31.168V4.043zm-39.056.959C9.386 12.771 0 28.092 0 45.094c0 3.872.583 7.809 1.637 11.713 1.222-1.113 39.108-35.603 39.889-36.316L24.497 5.002zm-2.66 78.603V44.834A73212.152 73212.152 0 0 1 3.244 61.768C6.852 70.83 13.435 78.52 21.837 83.605zM68.3 6.627v53.311h19.15C89.124 55.139 90 50.143 90 45.094c0-15.671-8.314-30.301-21.7-38.467z"/></svg>