<svg xmlns="http://www.w3.org/2000/svg" viewBox="0 0 129 129"><path d="M64.5 6.4C39 6.4 18.2 27.2 18.2 52.8c0 3.1.3 6.2.9 9.2 0 .2.1.4.1.7 5.1 22.9 41 57.3 42.5 58.7.8.8 1.8 1.1 2.8 1.1 1 0 2-.4 2.8-1.1 1.5-1.5 37.2-35.8 42.3-58.2 0-.2.1-.4.1-.6.7-3.2 1-6.5 1-9.8.1-25.6-20.7-46.4-46.2-46.4zm37.2 54.7v.3C97.9 78 73 104.2 64.5 112.7 56 104.2 31 78 27.2 61c0-.2 0-.3-.1-.5-.5-2.6-.8-5.2-.8-7.8 0-21 17.1-38.2 38.1-38.2s38.2 17.1 38.2 38.2c0 2.9-.3 5.7-.9 8.4z"/><path d="M64.5 32.5c-8.6 0-15.5 7-15.5 15.5s7 15.5 15.5 15.5S80 56.6 80 48s-6.9-15.5-15.5-15.5zm0 22.9c-4.1 0-7.4-3.3-7.4-7.4s3.3-7.4 7.4-7.4c4.1 0 7.4 3.3 7.4 7.4s-3.3 7.4-7.4 7.4z"/></svg>