<svg xmlns="http://www.w3.org/2000/svg" baseProfile="full" viewBox="0 0 24.00 24.00"><path fill-opacity=".867" d="M21.833 4c.49 0 .8.398.69.889l-3.18 14.222c-.11.491-.596.89-1.087.89H2.167c-.49 0-.8-.399-.69-.89L4.657 4.89C4.766 4.398 5.252 4 5.743 4h16.089zm-6 12h-4a.844.844 0 1 0 0 1.689h4a.844.844 0 0 0 0-1.689zm-10.049.277a.889.889 0 0 0 1.024 1.453c7.356-5.175 7.407-5.212 7.453-5.256a.886.886 0 0 0 .282-.609.885.885 0 0 0-.16-.556l-4.92-5.283a.889.889 0 1 0-1.3 1.212l4.145 4.445-6.524 4.594z"/></svg>