<svg xmlns="http://www.w3.org/2000/svg" viewBox="0 0 129 129"><path d="M10.6 35.7h6.5v47.6c0 2.3 1.8 4.1 4.1 4.1h15l-18.5 28.8c-1.2 1.9-.7 4.4 1.2 5.6.7.4 1.4.6 2.2.6 1.3 0 2.7-.7 3.4-1.9l21.3-33.2H83l21.3 33.3c.8 1.2 2.1 1.9 3.4 1.9.8 0 1.5-.2 2.2-.6 1.9-1.2 2.5-3.7 1.2-5.6L92.7 87.4h15.1c2.3 0 4.1-1.8 4.1-4.1V35.7h6.5c2.3 0 4.1-1.8 4.1-4.1V10.5c0-2.3-1.8-4.1-4.1-4.1H10.6c-2.3 0-4.1 1.8-4.1 4.1v21.1c0 2.3 1.8 4.1 4.1 4.1zm93.1 43.6H86.4c-.9-.3-1.8-.3-2.7 0H25.3V35.7h78.5v43.6zM14.5 14.6h99.7v12.9H14.6V14.6z"/><path d="M37.4 71.3c1 0 2.1-.4 2.9-1.2l6.5-6.5 13.4 3.5c1.5.4 3.1-.1 4.2-1.3L78 49.6c1.5-1.7 1.2-4.3-.5-5.8s-4.3-1.2-5.8.5l-12 14.2-13.2-3.4c-1.4-.4-2.9 0-3.9 1.1l-8.2 8.2c-1.6 1.6-1.6 4.2 0 5.8.9.7 1.9 1.1 3 1.1z"/></svg>