<svg xmlns="http://www.w3.org/2000/svg" baseProfile="full" viewBox="0 0 24.00 24.00"><path d="M22 13.5a3.5 3.5 0 0 1-3 3.465V20c0 1.1-.9 2-2 2h-3.8v-.3c0-1.49-1.21-2.7-2.7-2.7-1.49 0-2.7 1.21-2.7 2.7v.3H4c-1.1 0-2-.9-2-2v-3.8h.3c1.49 0 2.7-1.21 2.7-2.7 0-1.49-1.21-2.7-2.7-2.7h-.29V7c0-1.1.89-2 1.99-2h3.035a3.5 3.5 0 0 1 6.93 0H17c1.1 0 2 .9 2 2v3.035c1.696.243 3 1.702 3 3.465zM17 15h1.5a1.5 1.5 0 0 0 0-3H17V7h-5V5.5a1.5 1.5 0 0 0-3 0V7H4l.01 2.12C5.76 9.8 7 11.51 7 13.5c0 1.99-1.25 3.7-3 4.38V20h2.12c.68-1.75 2.39-3 4.38-3 1.99 0 3.7 1.25 4.38 3H17v-5z"/></svg>