<svg xmlns="http://www.w3.org/2000/svg" baseProfile="full" viewBox="0 0 24.00 24.00"><path d="M3.28 2L2 3.27l2.766 2.766.874 1.354L4.22 9.6l1.73.9 1.282-1.998L10.73 12H4a2 2 0 0 0-2 2v8h2v-2h14.73L20 21.27V22h2v-1.272l-.004-.004.004-.004L3.28 2zM7 17a1 1 0 0 1-2 0v-2a1 1 0 0 1 2 0v2zm4 0a1 1 0 0 1-2 0v-2a1 1 0 0 1 2 0v2zm4 0a1 1 0 0 1-2 0v-2c0-.206.077-.387.184-.546L15 16.27V17zm1.25-7.5l1.42-2.2-1.42-2.2 2-3.1 1.75.89-1.44 2.21L20 7.3v.01l-2 3.09-1.75-.9zM22 14v4.178l-3-3V15a1 1 0 0 0-1-1c-.053 0-.098.022-.148.03L15.822 12H20a2 2 0 0 1 2 2zM11.64 7.3l-1.42-2.2 2-3.1 1.73.89-1.42 2.21 1.42 2.2-.01.01-1.1 1.708-1.403-1.403.203-.315zM7.506 3.685L6.099 2.277l.121-.187L7.95 3l-.444.685z"/></svg>