<svg xmlns="http://www.w3.org/2000/svg" viewBox="0 0 52.371 52.37"><path d="M26.185 0S16.112 7.816 16.112 27.016c0 12.314 3.724 20.015 8.573 21.33V35.951a1.5 1.5 0 1 1 3 0v12.395c4.849-1.315 8.572-9.016 8.572-21.33C36.257 7.594 26.185 0 26.185 0zm-.119 14.818c-1.729 0-3.418-.155-4.914-.438 1.465-4.721 3.531-7.901 5.051-9.761 1.516 1.837 3.571 4.989 5.026 9.715-1.552.314-3.333.484-5.163.484zM13.408 35.504c-3.007 0-5.444 2.081-5.444 4.648V52.37l9.862-7.296c-1.463-2.496-2.556-5.737-3.201-9.57h-1.217zM38.96 35.504h-1.216c-.646 3.833-1.738 7.074-3.201 9.57l9.862 7.296V40.152c0-2.567-2.437-4.648-5.445-4.648z"/></svg>