<svg xmlns="http://www.w3.org/2000/svg" baseProfile="full" viewBox="0 0 24.00 24.00"><path d="M11 21H7v-2h4v2zm4.5-2H17v2h-4v-2h.2l-1.4-6.1-2.5.6c-.1.5-.3.9-.5 1.3-.9 1.5-2.8 1.9-4.3 1-1.5-.9-1.9-2.8-1-4.3.9-1.5 2.8-1.9 4.3-1 .4.2.7.6.9.9l2.5-.6-.6-2.5c-.4-.1-.8-.3-1.2-.5C8 6.9 7.5 5 8.4 3.5c.9-1.5 2.8-1.9 4.3-1 1.5.9 1.9 2.8 1 4.3-.2.4-.6.7-.9.9L15.5 19zM7 11.8c-.7-.5-1.7-.2-2.2.5-.5.7-.2 1.7.5 2.1.7.5 1.7.3 2.2-.5.4-.7.2-1.7-.5-2.1zM12.4 6c.5-.7.2-1.7-.5-2.2-.7-.5-1.7-.2-2.2.5-.4.7-.2 1.7.6 2.2.7.4 1.7.2 2.1-.5zm.4 5.3c-.2-.1-.4-.1-.5.1-.1.2-.1.4.1.5.2.1.4.1.5-.1.2-.2.1-.4-.1-.5zM21 8.5L14.5 10l.5 2.2 7.5-1.8.5-.7-2-1.2zM23 19h-4v2h4v-2zM5 19H1v2h4v-2z"/></svg>