<svg xmlns="http://www.w3.org/2000/svg" viewBox="0 0 129 129"><path d="M10.6 58.8h44.2c2.3 0 4.1-1.8 4.1-4.1V10.5c0-2.3-1.8-4.1-4.1-4.1H10.6c-2.3 0-4.1 1.8-4.1 4.1v44.2c0 2.3 1.8 4.1 4.1 4.1zm4-44.2h36v36h-36v-36zM118.4 58.8c2.3 0 4.1-1.8 4.1-4.1V10.5c0-2.3-1.8-4.1-4.1-4.1H74.2c-2.3 0-4.1 1.8-4.1 4.1v44.2c0 2.3 1.8 4.1 4.1 4.1h44.2zM78.3 14.6h36v36h-36v-36zM10.6 82.4c-2.3 0-4.1 1.8-4.1 4.1s1.8 4.1 4.1 4.1l107.9.1c2.3 0 4.1-1.8 4.1-4.1s-1.8-4.1-4.1-4.1l-107.9-.1zM10.5 122.4l107.9.1c2.3 0 4.1-1.8 4.1-4.1s-1.8-4.1-4.1-4.1l-107.9-.1c-2.3 0-4.1 1.8-4.1 4.1s1.9 4.1 4.1 4.1z"/></svg>