<svg xmlns="http://www.w3.org/2000/svg" viewBox="0 0 129 129"><path d="M17.7 118.3c0 2.3 1.8 4.1 4.1 4.1s4.1-1.8 4.1-4.1V37.1c6.6-1.8 11.5-7.8 11.5-15 0-8.5-6.9-15.5-15.5-15.5s-15.4 7-15.4 15.5c0 7.1 4.8 13.1 11.3 14.9v81.3zm-3.2-96.2c0-4 3.3-7.3 7.3-7.3s7.3 3.3 7.3 7.3-3.3 7.3-7.3 7.3-7.3-3.3-7.3-7.3zM64.4 6.6c-2.3 0-4.1 1.8-4.1 4.1v42.2C53.8 54.7 49 60.7 49 67.8s4.8 13.1 11.3 14.9v35.7c0 2.3 1.8 4.1 4.1 4.1s4.1-1.8 4.1-4.1V82.7c6.6-1.8 11.5-7.8 11.5-15s-4.9-13.2-11.5-15v-42c0-2.3-1.8-4.1-4.1-4.1zm7.5 61.2c0 4-3.3 7.3-7.3 7.3s-7.3-3.3-7.3-7.3 3.3-7.3 7.3-7.3 7.3 3.2 7.3 7.3zM111.1 92V10.7c0-2.3-1.8-4.1-4.1-4.1s-4.1 1.8-4.1 4.1V92c-6.6 1.8-11.4 7.8-11.4 14.9 0 8.5 6.9 15.5 15.5 15.5s15.5-6.9 15.5-15.5c.1-7.1-4.8-13.1-11.4-14.9zm-4 22.2c-4 0-7.3-3.3-7.3-7.3s3.3-7.3 7.3-7.3 7.3 3.3 7.3 7.3-3.3 7.3-7.3 7.3z"/></svg>