<svg xmlns="http://www.w3.org/2000/svg" viewBox="0 0 48.665 48.665"><path d="M40.332 31.592c-2.377 0-4.515 1-6.033 2.598l-17.737-8.686c.061-.406.103-.82.103-1.246 0-.414-.04-.818-.098-1.215l17.711-8.589a8.3 8.3 0 0 0 6.054 2.619 8.333 8.333 0 0 0 8.333-8.333c0-4.603-3.73-8.333-8.333-8.333s-8.333 3.73-8.333 8.333c0 .414.04.817.098 1.215l-17.709 8.589a8.3 8.3 0 0 0-6.054-2.619A8.333 8.333 0 0 0 0 24.258a8.332 8.332 0 0 0 8.333 8.333 8.3 8.3 0 0 0 6.033-2.596l17.736 8.685c-.062.406-.104.82-.104 1.245 0 4.604 3.73 8.333 8.333 8.333s8.333-3.729 8.333-8.333a8.33 8.33 0 0 0-8.332-8.333z"/></svg>