<svg xmlns="http://www.w3.org/2000/svg" viewBox="0 0 129 129"><path d="M43.2 80c2.8 0 5.4-.8 7.7-2.1l21.4 21.4c-1.3 2.3-2.1 4.9-2.1 7.7 0 8.6 7 15.5 15.5 15.5s15.5-7 15.5-15.5c0-8.6-7-15.5-15.5-15.5-2.8 0-5.4.8-7.7 2.1L56.7 72.2c1.3-2.3 2.1-4.9 2.1-7.7s-.8-5.4-2.1-7.7L78 35.5c2.3 1.3 4.9 2.1 7.7 2.1 8.6 0 15.5-7 15.5-15.5s-7-15.5-15.5-15.5-15.5 7-15.5 15.5c0 2.8.8 5.4 2.1 7.7L50.9 51c-2.2-1.3-4.9-2-7.7-2-8.6 0-15.5 7-15.5 15.5S34.7 80 43.2 80zm42.6 19.7c4.1 0 7.4 3.3 7.4 7.4 0 4.1-3.3 7.4-7.4 7.4-4.1 0-7.4-3.3-7.4-7.4 0-4.1 3.3-7.4 7.4-7.4zm0-85.1c4.1 0 7.4 3.3 7.4 7.4s-3.3 7.4-7.4 7.4c-4.1 0-7.4-3.3-7.4-7.4s3.3-7.4 7.4-7.4zM43.2 57.1c4.1 0 7.4 3.3 7.4 7.4s-3.3 7.4-7.4 7.4-7.4-3.3-7.4-7.4 3.4-7.4 7.4-7.4z"/></svg>