<svg xmlns="http://www.w3.org/2000/svg" viewBox="0 0 129 129"><path d="M35 49.5h59c2.3 0 4.1-1.8 4.1-4.1s-1.8-4.1-4.1-4.1H35c-2.3 0-4.1 1.8-4.1 4.1s1.8 4.1 4.1 4.1zM35 69.3h59c2.3 0 4.1-1.8 4.1-4.1s-1.8-4.1-4.1-4.1H35c-2.3 0-4.1 1.8-4.1 4.1s1.8 4.1 4.1 4.1z"/><path d="M10.5 95.8h13.2v13.5c0 1.6.9 3 2.3 3.7.6.3 1.2.4 1.8.4.9 0 1.8-.3 2.5-.8l22-16.7h66.2c2.3 0 4.1-1.8 4.1-4.1V18.9c0-2.3-1.8-4.1-4.1-4.1h-108c-2.3 0-4.1 1.8-4.1 4.1v72.8c0 2.3 1.9 4.1 4.1 4.1zM14.6 23h99.7v64.6H50.9c-.9 0-1.8.3-2.5.8L31.9 101v-9.3c0-2.3-1.8-4.1-4.1-4.1H14.6V23z"/></svg>