<svg xmlns="http://www.w3.org/2000/svg" viewBox="0 0 129 129"><path d="M118.4 114.4H14.6V10.6c0-2.3-1.8-4.1-4.1-4.1s-4.1 1.8-4.1 4.1v107.9c0 2.3 1.8 4.1 4.1 4.1h107.9c2.3 0 4.1-1.8 4.1-4.1s-1.8-4.1-4.1-4.1z"/><path d="M54.3 98.6v-59c0-2.3-1.8-4.1-4.1-4.1s-4.1 1.8-4.1 4.1v59c0 2.3 1.8 4.1 4.1 4.1s4.1-1.8 4.1-4.1zM34.5 98.6v-59c0-2.3-1.8-4.1-4.1-4.1s-4.1 1.8-4.1 4.1v59c0 2.3 1.8 4.1 4.1 4.1s4.1-1.8 4.1-4.1zM93.9 98.6v-59c0-2.3-1.8-4.1-4.1-4.1s-4.1 1.8-4.1 4.1v59c0 2.3 1.8 4.1 4.1 4.1s4.1-1.8 4.1-4.1zM113.7 98.6V69.1c0-2.3-1.8-4.1-4.1-4.1s-4.1 1.8-4.1 4.1v29.5c0 2.3 1.8 4.1 4.1 4.1s4.1-1.8 4.1-4.1zM74.1 98.6V69.1c0-2.3-1.8-4.1-4.1-4.1s-4.1 1.8-4.1 4.1v29.5c0 2.3 1.8 4.1 4.1 4.1s4.1-1.8 4.1-4.1z"/></svg>