<svg xmlns="http://www.w3.org/2000/svg" viewBox="0 0 129 129"><path d="M121.7 45.1l-.2-.7s-.1-.2-.1-.3l-12.6-35c-.6-1.6-2.1-2.7-3.9-2.7H24.1c-1.7 0-3.3 1.1-3.9 2.7L7.7 43.9c-.1.2-.1.4-.2.6l-.4 1.2c-.1.3-.2.6-.2 1-.4 1.5-.6 2.8-.6 4.2 0 7.6 4.8 14.1 11.6 16.5v51.2c0 2.3 1.8 4.1 4.1 4.1h86.7c2.3 0 4.1-1.8 4.1-4.1V66.7c5.9-2.9 10-8.9 10-15.8 0-1.2-.2-2.5-.5-3.8-.1-.8-.3-1.4-.6-2zm-17.2 69.4H26.1V68.3c.2 0 .5-.1.7-.1 4.3-.7 8-2.9 10.7-6.1 3.2 3.9 8.1 6.3 13.5 6.3s10.3-2.5 13.5-6.3c3.2 3.9 8.1 6.3 13.5 6.3s10.3-2.5 13.5-6.3c2.3 2.8 5.4 4.8 9 5.7.1 0 .2.1.3.1.4.1.8.2 1.3.3.2 0 .5.1.7.1.3 0 .7.1 1 .1.2 0 .5.1.7.1v46zm3.2-54.6c-.1 0-.1 0 0 0-.5.1-.9.2-1.3.3-.4.1-.9.1-1.3.1-.6 0-1.2-.1-1.8-.2-.5-.1-1-.3-1.4-.4-.1 0-.1 0-.2-.1-3.2-1.3-5.6-4.4-5.9-8v-.2-.5c0-2.3-1.8-4.1-4.1-4.1s-4.1 1.8-4.1 4.1c0 .2 0 .4-.1.6v.1c-.3 3.7-2.7 6.7-5.9 8-.1 0-.1 0-.2.1-.5.2-1 .3-1.5.4-.6.1-1.2.2-1.8.2-.6 0-1.2-.1-1.8-.2-.5-.1-1-.3-1.4-.4-.1 0-.1 0-.2-.1-3.2-1.3-5.6-4.4-5.9-8v-.2c0-.2-.1-.3-.1-.5 0-2.3-1.8-4.1-4.1-4.1s-4.1 1.8-4.1 4.1c0 .2 0 .4-.1.6v.1c-.3 3.7-2.7 6.7-5.9 8-.1 0-.1 0-.2.1-.5.2-1 .3-1.5.4-.6.1-1.2.2-1.8.2-.6 0-1.2-.1-1.8-.2-.5-.1-1-.3-1.5-.4-.1 0-.1 0-.2-.1-3.2-1.3-5.6-4.4-5.9-8v-.2-.5c0-2.3-1.8-4.1-4.1-4.1s-4.1 1.8-4.1 4.1c0 .2 0 .4-.1.6v.1c-.3 3.7-2.7 6.7-5.9 8-.1 0-.1 0-.2.1-.5.2-.9.3-1.4.4-.6.1-1.2.2-1.8.2-.3 0-.7-.1-1-.1-.1 0-.2 0-.4-.1h-.3c-4.4-.8-7.8-4.6-7.8-9.3 0-.8.1-1.6.4-2.6 0-.1.1-.3.1-.4l12-33.3h75L113.7 47s.1.2.1.3l.2.6c0 .1.1.3.1.4.3 1 .4 1.8.4 2.6 0 4.2-2.9 7.8-6.8 9z"/></svg>