<svg xmlns="http://www.w3.org/2000/svg" viewBox="0 0 47.793 47.793"><path d="M13.747 20.831h20.207c5.752 0 10.416-4.663 10.416-10.416S39.706 0 33.953 0H13.747C7.995 0 3.331 4.663 3.331 10.416s4.663 10.415 10.416 10.415zm0-17.062a6.647 6.647 0 1 1 0 13.294 6.647 6.647 0 0 1 0-13.294zM34.046 26.961H13.84c-5.752 0-10.416 4.663-10.416 10.416S8.087 47.793 13.84 47.793h20.206c5.752 0 10.416-4.663 10.416-10.416s-4.663-10.416-10.416-10.416zm0 17.062a6.647 6.647 0 0 1 0-13.294c3.669 0 6.647 2.978 6.647 6.647s-2.976 6.647-6.647 6.647z"/></svg>