<svg xmlns="http://www.w3.org/2000/svg" viewBox="0 0 129 129"><path d="M121.3 66.4L62.6 7.7c-.9-.9-2.2-1.3-3.4-1.2l-44 5c-1.9.2-3.5 1.7-3.7 3.7l-5 44c-.1 1.3.3 2.5 1.2 3.4l58.7 58.7c.8.8 1.9 1.2 3 1.2s2.1-.4 3-1.2l49-49c.8-.8 1.2-1.8 1.2-3-.1-1-.5-2.1-1.3-2.9zM15.1 58.1l4.4-38.6 38.6-4.4L98 55 55 98 15.1 58.1zm54.3 54.3L61 104l43-43 8.4 8.4-43 43z"/><path d="M54.7 32.2c-3-3-7-4.7-11.3-4.7s-8.2 1.7-11.3 4.7c-6.2 6.2-6.2 16.3 0 22.5 3 3 7 4.7 11.3 4.7s8.2-1.7 11.3-4.7c3-3 4.7-7 4.7-11.3 0-4.2-1.7-8.2-4.7-11.2zm-5.9 16.6c-2.8 2.8-7.8 2.8-10.7 0-2.9-2.9-2.9-7.7 0-10.7 1.4-1.4 3.3-2.2 5.3-2.2s3.9.8 5.3 2.2c1.4 1.4 2.2 3.3 2.2 5.3.1 2.1-.7 3.9-2.1 5.4z"/></svg>