<svg xmlns="http://www.w3.org/2000/svg" viewBox="0 0 430.118 430.118"><path d="M236.658 173.123l113.84-131.789V0H88.117v103.033h52.962V49.124h119.937c8.518 0 21.917-1.802 21.917-1.802v1.19s-9.735 7.203-16.433 15.595L161.787 188.095l13.994 31.146c3.052-.583 14.011-1.186 25.578-1.186 52.353 0 94.972 28.161 94.972 78.478 0 46.722-40.183 80.269-88.282 80.269-61.484 0-104.71-46.736-104.71-46.736l-31.652 42.536s51.142 57.517 139.405 57.517c89.506 0 147.34-63.5 147.34-135.979-.01-81.489-68.205-115.622-121.774-121.017z"/></svg>