<svg xmlns="http://www.w3.org/2000/svg" viewBox="0 0 430.117 430.117"><path d="M265.048 233.349c-1.975-5.115-4.77-9.94-8.326-14.323 7.943-4.669 14.211-8.349 14.211-8.349l71.164-42.114a26.004 26.004 0 0 1-1.278-8.039c0-14.407 11.714-26.084 26.163-26.084s26.164 11.677 26.164 26.084c0 14.4-11.715 26.075-26.164 26.075-5.881 0-11.29-1.96-15.663-5.227-15.821 10.16-38.027 23.795-71.938 43.632l-14.333 8.345zm11.163 60.369c-2.431.69-4.807 2.016-7.089 3.804-.877-.5-3.057-1.731-3.057-1.731-2.357-1.242-5.12-2.688-11.995-7.263a67.496 67.496 0 0 1-11.742 10.464l11.397 6.739c.014.01 5.559 3.211 7.472 4.321-.387 1.699-.69 3.342-.69 4.812 0 2.049.28 4.116.85 6.146 3.341 11.798 15.448 18.748 26.989 15.494 5.475-1.54 10.039-5.161 12.849-10.184a22.104 22.104 0 0 0 2.856-10.888c0-2.096-.28-4.182-.859-6.217-3.338-11.782-15.458-18.745-26.981-15.497zm-20.707-44.281c-2.786-24.624-28.591-41.943-57.669-38.684-29.066 3.27-50.372 25.877-47.59 50.51 2.786 24.623 28.607 41.947 57.669 38.676 29.066-3.253 50.376-25.87 47.59-50.502zm142.102-23.784c-15.046 0-27.671 10.211-31.381 24.054-29.739-.467-63.562-.803-97.836-.942.135 2.072.145 4.153.032 6.254-.2 3.486-.77 6.897-1.652 10.225 34.663-.135 68.887-.471 98.942-.928 2.922 14.901 16.083 26.154 31.895 26.154 17.955 0 32.511-14.506 32.511-32.404s-14.555-32.413-32.511-32.413zm-245.98 66.785a54.795 54.795 0 0 1-5.782-7.463c-12.947 7.948-24.197 15.084-33.521 21.273-4.931-4.69-11.241-7.201-17.912-6.945-6.637.267-12.783 3.085-17.301 7.935-4.501 4.858-6.856 11.168-6.604 17.791.542 13.665 12.116 24.348 25.828 23.825 13.413-.514 23.923-11.406 23.923-24.773l-.023-.961c-.054-1.508-.417-3.179-.866-4.924l36.852-21.352a55.7 55.7 0 0 1-4.594-4.406zm-93.01-112.271c4.405 2.952 9.695 4.028 14.916 3.005 2.742-.522 5.386-1.874 7.932-3.804 1.267.982 25.23 19.527 25.23 19.527l39.369 30.331.038.028c2.844-4.704 6.387-9.05 10.461-12.938l-.261-.196c-34.877-27.057-55.844-40.807-67.472-47.674.437-1.659.77-3.26.77-4.697l-.373-3.801c-2.098-10.708-12.555-17.73-23.303-15.63-5.213 1.013-9.722 3.99-12.688 8.387-2.233 3.302-3.398 7.105-3.398 11.005 0 1.276.124 2.558.385 3.838a19.715 19.715 0 0 0 8.394 12.619zm141.011-24.049c-.378 11.679-.688 26.586-.903 40.918a73.075 73.075 0 0 1 7.966-.446c2.649 0 5.267.154 7.843.446-.219-14.333-.511-29.218-.889-40.918 18.001-3.356 30.984-18.701 30.984-36.996 0-20.878-17.049-37.878-38.006-37.878-20.955 0-37.988 17-37.988 37.878.001 18.295 12.99 33.649 30.993 36.996zm-61.559 98.555c.1-1.956.315-3.893.653-5.797-29.879.187-58.458.504-83.064.915-2.595-12.812-13.945-22.458-27.548-22.458C12.587 227.333 0 239.878 0 255.363c0 15.462 12.587 27.998 28.109 27.998 12.408 0 22.927-8.022 26.645-19.149 24.731.411 53.506.729 83.629.915a47.13 47.13 0 0 1-.315-10.454z"/></svg>