<svg xmlns="http://www.w3.org/2000/svg" baseProfile="full" viewBox="0 0 24.00 24.00"><path d="M6 2h12a2 2 0 0 1 2 2v16a2 2 0 0 1-2 2H6a2 2 0 0 1-2-2V4a2 2 0 0 1 2-2zm1 2a1 1 0 1 0 0 2 1 1 0 0 0 0-2zm3 0a1 1 0 1 0 0 2 1 1 0 0 0 0-2zm2 4a6 6 0 1 0 0 12 6 6 0 0 0 0-12zm-3.893 2.5h1.891c-.24 1.38 0 2.17.58 2.79 1.1 1.07 1.581 2.42 1.31 4.21h-1.89c.24-1.38 0-2.17-.58-2.79-1.1-1.07-1.57-2.42-1.31-4.21zm4 0h1.891c-.24 1.38 0 2.17.58 2.79 1.1 1.07 1.581 2.42 1.31 4.21h-1.89c.24-1.38 0-2.17-.58-2.79-1.1-1.07-1.57-2.42-1.31-4.21z"/></svg>