<svg xmlns="http://www.w3.org/2000/svg" baseProfile="full" viewBox="0 0 24.00 24.00"><path d="M2 12c0 5.523 4.477 10 10 10s10-4.477 10-10S17.523 2 12 2 2 6.477 2 12m3.24 6.76A9.498 9.498 0 0 1 2.44 12c0-2.553.994-4.954 2.8-6.76A9.497 9.497 0 0 1 12 2.44c2.553 0 4.954.995 6.76 2.8a9.496 9.496 0 0 1 2.8 6.76 9.498 9.498 0 0 1-2.8 6.76 9.498 9.498 0 0 1-6.76 2.8 9.498 9.498 0 0 1-6.76-2.8m1.114-9.252c-2.01 2.285-1.629 4.171-1.629 4.171s.554-1.298 1.889-2.666c.632-.647 1.104-.864 1.427-.865a.5.5 0 0 1 .531.502v4.639c0 .457-.297.558-.572.552-.234-.004-.45-.085-.45-.085 1.369 1.974 4.644 2.25 4.644 2.25l1.438-1.523.034.029 1.317 1.114c2.409-1.42 3.57-4.05 3.57-4.05-1.075 1.127-1.76 1.39-2.166 1.388-.361-.002-.503-.212-.503-.212-.019-.098-.066-5.848.008-5.853.416-.773 1.742-2.334 1.742-2.334-2.478.484-3.829 2.094-3.829 2.094-.399-.311-1.213-.26-1.213-.26.381.208.762.814.762 1.316v4.934s-.831.726-1.472.726a.906.906 0 0 1-.74-.373c-.09-.119-.129-.216-.129-.216V8.693a.538.538 0 0 1-.305.102c-.136 0-.277-.068-.373-.267-.072-.15-.119-.375-.119-.701 0-1.125 1.283-1.87 1.283-1.87-1.629.433-3.136 1.264-5.147 3.55"/></svg>