<svg xmlns="http://www.w3.org/2000/svg" baseProfile="full" viewBox="0 0 24.00 24.00"><path d="M5 3a2 2 0 0 0-2 2v14a2 2 0 0 0 2 2h14a2 2 0 0 0 2-2V5a2 2 0 0 0-2-2H5zm.506 5.5h1.473c.376 0 .518.164.66.572.72 2.1 1.936 3.936 2.435 3.936.188 0 .274-.087.274-.563v-2.17c-.055-.999-.586-1.082-.586-1.437 0-.165.14-.338.375-.338h2.316c.312 0 .416.166.416.541v2.92c0 .312.14.422.235.422.187 0 .342-.11.685-.453 1.062-1.187 1.813-3.014 1.813-3.014.093-.219.265-.416.64-.416h1.473c.445 0 .54.229.447.541-.187.859-1.984 3.389-1.984 3.389-.156.25-.219.375 0 .656.156.219.672.655 1.015 1.06.633.713 1.11 1.313 1.242 1.727.122.415-.088.627-.51.627h-1.472c-.562 0-.727-.448-1.726-1.447-.875-.843-1.249-.953-1.467-.953-.297 0-.387.084-.387.505v1.323c0 .362-.116.572-1.053.572-1.561 0-3.276-.949-4.494-2.697C5.5 11.243 5 9.306 5 8.916c0-.219.085-.416.506-.416z"/></svg>