<svg xmlns="http://www.w3.org/2000/svg" baseProfile="full" viewBox="0 0 24.00 24.00"><path d="M12 2c5.519 0 10 4.481 10 10s-4.481 10-10 10S2 17.519 2 12 6.481 2 12 2zm1.6 18.349a17.985 17.985 0 0 0 4.892-8.589 11.965 11.965 0 0 0-2-.25 16.029 16.029 0 0 1-5.988 8.859 8.581 8.581 0 0 0 3.096-.02zm-4.369-.31a15.037 15.037 0 0 0 6.225-8.527c-.75.034-1.482.136-2.19.301a13.055 13.055 0 0 1-6.138 7.153 8.515 8.515 0 0 0 2.103 1.073zm11.261-7.668c-.336-.137-.68-.258-1.031-.363a18.95 18.95 0 0 1-3.926 7.724 8.5 8.5 0 0 0 4.957-7.361zM3.555 11.035a8.466 8.466 0 0 0 2.718 7.245 12.029 12.029 0 0 0 1.663-.989 19.07 19.07 0 0 1-4.381-6.256zM5.33 6.744a8.462 8.462 0 0 0-1.381 2.534 18.019 18.019 0 0 0 4.787 7.393c.51-.431.984-.904 1.417-1.414A15.98 15.98 0 0 1 5.33 6.744zm2.707-2.252A8.474 8.474 0 0 0 6.179 5.82a14.975 14.975 0 0 0 4.591 8.646c.397-.556.748-1.147 1.047-1.768a12.96 12.96 0 0 1-3.78-8.206zM19.963 9.03A14.98 14.98 0 0 0 16 8.5c-1.9 0-3.719.354-5.392 1 .347.6.745 1.168 1.188 1.696A12.97 12.97 0 0 1 16 10.5c1.57 0 3.076.279 4.47.79a8.444 8.444 0 0 0-.507-2.26zm-2.425-3.465A18.197 18.197 0 0 0 16 5.5a17.92 17.92 0 0 0-6.558 1.234c.181.649.416 1.275.698 1.875A15.934 15.934 0 0 1 16 7.5c1.175 0 2.32.127 3.423.368a8.544 8.544 0 0 0-1.885-2.303zM15.978 4.5A8.46 8.46 0 0 0 12 3.513a8.478 8.478 0 0 0-2.987.54c.026.578.093 1.144.198 1.698A18.93 18.93 0 0 1 15.978 4.5z"/></svg>