<svg xmlns="http://www.w3.org/2000/svg" viewBox="0 0 129 129"><path d="M115.1 24.9c1.1-2.1.4-4.7-1.7-5.8C98.6 10.8 81.7 6.4 64.6 6.4c-17.2 0-34.1 4.4-49.1 12.8-2.1 1.2-2.8 3.8-1.6 5.8.8 1.4 2.2 2.2 3.7 2.2.7 0 1.4-.2 2.1-.5C33.4 19 48.9 15 64.6 15c15.6 0 31.1 4 44.7 11.6 2.1 1.1 4.7.4 5.8-1.7zM98.1 52.3c1.5 0 2.9-.8 3.7-2.2 1.2-2 .4-4.7-1.6-5.8-10.8-6.1-23.1-9.4-35.6-9.4-12.4 0-24.7 3.2-35.5 9.3-2.1 1.2-2.8 3.8-1.6 5.8 1.2 2 3.8 2.8 5.8 1.6 9.5-5.4 20.3-8.2 31.3-8.2s21.9 2.9 31.4 8.3c.6.4 1.4.6 2.1.6zM87.4 74.6c1.1-2.1.4-4.7-1.7-5.8-13.1-7.3-30-7.1-43 .4-2 1.2-2.7 3.8-1.6 5.8.8 1.4 2.2 2.1 3.7 2.1.7 0 1.5-.2 2.1-.6 10.5-6 24-6.1 34.6-.3 2.2 1.2 4.8.5 5.9-1.6zM49.2 107.2c0 8.5 6.9 15.4 15.4 15.4S80 115.7 80 107.2s-6.9-15.4-15.4-15.4-15.4 6.9-15.4 15.4zm22.2 0c0 3.8-3.1 6.8-6.8 6.8-3.8 0-6.8-3.1-6.8-6.8 0-3.8 3.1-6.8 6.8-6.8 3.7 0 6.8 3 6.8 6.8z"/></svg>