<svg xmlns="http://www.w3.org/2000/svg" baseProfile="full" viewBox="0 0 24.00 24.00"><path d="M2.672 5.301v.613l-.708.291v-.603l.708-.301zm0 5.942v.613l-.708.291v-.592l.708-.312zm0 6.025v.623l-.708.291v-.592l.708-.322zm-.073-9.982v.55l-.573.26v-.54l.573-.27zm0 1.994v.54l-.573.26v-.54l.573-.26zm0 4.03v.53l-.573.26v-.54l.573-.25zm0 2.016v.54l-.573.26v-.53l.573-.27zm1.884-9.682v.717l-.978.364v-.707l.978-.374zm0 6.015v.707l-.977.373v-.706l.977-.374zm0 6.045v.707l-.977.395v-.707l.977-.395zm-.052-9.983v.655l-.787.301v-.654l.787-.302zm0 2.006v.644l-.786.301v-.665l.786-.28zm0 4.009v.644l-.786.312v-.665l.786-.291zm0 2.026v.643l-.786.312v-.654l.786-.301zm1.88-9.671v.852l-1.264.488v-.842l1.264-.498zm0 6.014v.852l-1.264.489v-.841l1.264-.5zm0 5.973v.852l-1.264.499v-.852l1.264-.499zm-.064-9.899v.758l-1.061.405v-.737l1.061-.426zm0 2.005v.747l-1.061.416v-.748l1.061-.415zm0 4.01v.747l-1.061.426v-.748l1.061-.425zm0 1.941v.769l-1.061.416v-.748l1.061-.437zM8.285 6.037V7.16l-1.561.624V6.673l1.561-.636zm0 6.027v1.122l-1.561.613v-1.122l1.561-.613zm0 5.962v1.122l-1.561.623V18.66l1.561-.634zm-.084-9.899v1.029l-1.309.53v-1.03l1.309-.529zm0 2.005v1.017l-1.309.53V10.65l1.309-.518zm0 4.02v1.028l-1.309.52v-1.029l1.309-.519zm0 1.943v1.028l-1.309.52v-1.018l1.309-.53zm2.138-10.243v1.465l-1.73.706V6.558l1.73-.706zm0 6.014v1.464l-1.729.696v-1.464l1.729-.696zm0 5.973v1.464L8.609 20v-1.464l1.73-.697zm-.084-9.785V9.28l-1.479.592V8.635l1.479-.581zm0 1.911v1.236l-1.479.582v-1.226l1.479-.592zm0 4.093v1.247l-1.479.571V14.65l1.479-.592zm0 1.953v1.236l-1.479.592v-1.236l1.479-.592zm2.196-10.896v2.004l-1.863.769v-1.87a14.666 14.666 0 0 1 1.863-.903zm0 2.212v1.734l-1.863.78V8.095l1.863-.768zm0 1.953v1.756l-1.863.779V10.06l1.863-.78zm0 1.973v1.734l-1.863.78v-1.745l1.863-.769zm0 1.954v1.786l-1.863.79v-1.798l1.863-.778zm0 2.004v1.746l-1.863.799V15.99l1.863-.779zm0 1.963v1.87a20.27 20.27 0 0 0-1.863.8v-1.88l1.863-.79zm9.585-11.997v14.052c-1.188-.785-2.67-1.177-4.448-1.177-1.472 0-3.118.302-4.937.906v-1.896c.965-.372 2.028-.64 3.188-.802v-4.573c-.979.125-2.042.465-3.188 1.021v-1.312a11.62 11.62 0 0 1 3.188-.938V5.979c-1.021.202-2.083.546-3.188 1.031V5.031C14.269 4.344 15.856 4 17.411 4c1.674 0 3.216.392 4.625 1.177zm-1.885 1.229c-.76-.389-1.672-.583-2.734-.583-.123 0-.247.007-.37.021v4.531l.411-.01c.911 0 1.809.146 2.693.438V6.406zm0 5.698c-.816-.361-1.72-.542-2.714-.542-.123 0-.253.007-.391.021v4.573h.411c.993 0 1.891.125 2.693.375v-4.427h.001z"/></svg>