<svg xmlns="http://www.w3.org/2000/svg" baseProfile="full" viewBox="0 0 24.00 24.00"><path d="M9.984 15l5.204-3-5.204-3v6zm11.579-7.828c.125.469.218 1.101.28 1.898.063.797.095 1.492.095 2.086l.046.844c0 2.188-.14 3.797-.422 4.828-.25.906-.828 1.485-1.734 1.735-.469.125-1.351.218-2.648.28a74.904 74.904 0 0 1-3.586.095L12 18.983c-4.188 0-6.797-.14-7.828-.422-.906-.25-1.484-.828-1.734-1.734-.126-.469-.22-1.101-.282-1.898a27.12 27.12 0 0 1-.094-2.086L2.017 12c0-2.188.14-3.797.421-4.828.25-.906.829-1.484 1.735-1.734.469-.125 1.351-.22 2.648-.282a74.896 74.896 0 0 1 3.586-.093L12 5.016c4.188 0 6.797.14 7.828.421.906.25 1.485.829 1.735 1.735z"/></svg>