<svg xmlns="http://www.w3.org/2000/svg" viewBox="0 0 430.117 430.118"><path d="M89.131 305.61c11.919 0 31.496-10.445 43.835-21.776 65.085 125.829 83.38 146.284 128.046 146.284 48.496 0 97.421-37.005 97.421-70.515 0-11.332-5.955-21.343-11.896-24.386-20.423 11.309-38.723 17.413-55.314 17.413-21.272 0-33.183-9.586-100.82-111.454 51.462-45.275 81.686-75.317 120.8-132.347 33.622-22.638 46.802-42.669 46.802-60.948 0-15.669-13.18-36.564-30.182-36.564-8.103 0-14.478 7.84-22.985 21.338C242.298 8.268 212.944 0 180.613 0 150.41 0 125.73 26.983 125.73 58.334c0 17.854 7.231 27.853 18.286 31.337 14.456-8.695 26.38-12.183 34.025-12.183 20.01 0 51.062 9.143 89.342 20.899-19.136 28.292-68.91 80.547-104.648 109.28-13.612-11.766-22.129-16.111-34.448-16.111-39.577 0-56.604 47.006-56.604 76.185.001 29.598 6.817 37.869 17.448 37.869z"/></svg>