<svg xmlns="http://www.w3.org/2000/svg" viewBox="0 0 90 90"><path d="M67.086.352s6.197-.588 11.054 2.604c1.76-.084 3.182.674 4.104 2.354.923 1.68 2.596 5.713 1.257 8.15-.418.504-1.341-1.514-1.341-1.514s-.67 2.438-1.926 3.361c.168 5.041-1.842 8.568-2.428 9.746-.252.672-.084 1.262.166 1.934.252.672 3.603 12.518 3.435 16.467-.168 3.948-2.177 8.653-3.769 10.25.334 3.276-1.173 6.051-1.927 7.395s-2.428 6.385-2.848 8.736c-.419 2.354-.586 4.875-.083 5.631s2.763 3.109 2.596 4.285c-.168 1.176-2.596 2.52-3.769 2.52-1.172 0-3.603-.756-4.188-2.354-.585-1.597-.67-4.367-.25-5.963.418-1.599 3.267-13.275 1.593-20.166-4.104 1.848-10.972 1.766-10.972 1.766s-1.172 6.133-2.596 9.66c-.502.84-.419 6.555-.419 10.166 0 3.613 1.256 9.242 1.256 9.242s1.759 1.262 1.508 2.856C57.29 89.076 55.278 90 53.52 90s-4.103-1.344-4.103-3.529c0-2.184.333-7.141.166-10.754-.166-3.613-.082-5.965-.669-8.234-.587-2.269-2.261-8.233-2.429-12.854-.586 0-1.172-.42-1.172-.42s-2.764 3.192-4.689 5.041c.251 1.26.92 3.528.92 4.033 0 .504.504.924 1.341 1.26.837.338 3.432 1.766 3.349 3.192-.084 1.429-3.35 1.681-6.197.421-.669-.337-3.098-8.484-3.433-9.578-.336-1.093-.587-1.681-.167-2.605.418-.922 1.591-3.947 1.424-5.713-.168-1.764-3.434-4.537-5.611-4.537-1.675 0-4.234 2.568-6.113 4.033-2.261 1.766-4.856 4.453-5.526 4.873-.671.422-5.946 10-6.951 12.771-.418 1.093-1.255 6.556-5.692 6.386-2.01-.168-3.853-2.353 1.842-6.302 1.445-3.34 3.455-6.807 3.58-7.5.125-.692 1.633-9.325 4.146-17.518 2.512-8.191 6.218-12.098 6.907-12.666.566-.439.88-.693.314-1.008-.564-.314-6.531-5.42-5.4-16.258.188-1.26.754-.945 1.13 1.953.377 2.898 2.7 9.705 7.851 11.848.502.188 4.208-2.646 23.111-4.033.126-3.34.629-6.869.629-6.869s-1.318-1.008-1.508-3.025c-.628 1.01-1.004 1.262-1.821 1.135-.815-.125-.754-4.031-.564-6.805.189-2.773 3.392-3.971 4.586-4.096 1.568-.82 3.265-.693 3.265-.693S58.921-.992 67.086.352z"/></svg>